<?xml version="1.0" encoding="UTF-8" standalone="no"?>
<!DOCTYPE svg PUBLIC "-//W3C//DTD SVG 1.1//EN"
 "http://www.w3.org/Graphics/SVG/1.1/DTD/svg11.dtd">
<!-- Generated by graphviz version 2.40.1 (20161225.0304)
 -->
<!-- Title: G Pages: 1 -->
<svg width="232pt" height="404pt"
 viewBox="0.00 0.00 231.58 404.00" xmlns="http://www.w3.org/2000/svg" xmlns:xlink="http://www.w3.org/1999/xlink">
<g id="graph0" class="graph" transform="scale(1 1) rotate(0) translate(4 400)">
<title>G</title>
<polygon fill="#ffffff" stroke="transparent" points="-4,4 -4,-400 227.5788,-400 227.5788,4 -4,4"/>
<!-- prepare -->
<g id="node1" class="node">
<title>prepare</title>
<polygon fill="none" stroke="#000000" points="179.5279,-396 44.0509,-396 44.0509,-360 179.5279,-360 179.5279,-396"/>
<text text-anchor="middle" x="111.7894" y="-373.8" font-family="Times,serif" font-size="14.00" fill="#000000">prepare namelist files</text>
</g>
<!-- cmorization -->
<g id="node2" class="node">
<title>cmorization</title>
<ellipse fill="none" stroke="#000000" cx="111.7894" cy="-306" rx="95.6672" ry="18"/>
<text text-anchor="middle" x="111.7894" y="-301.8" font-family="Times,serif" font-size="14.00" fill="#000000">submit cmorization jobs</text>
</g>
<!-- prepare&#45;&gt;cmorization -->
<g id="edge1" class="edge">
<title>prepare&#45;&gt;cmorization</title>
<path fill="none" stroke="#000000" stroke-dasharray="5,2" d="M111.7894,-359.8314C111.7894,-352.131 111.7894,-342.9743 111.7894,-334.4166"/>
<polygon fill="#000000" stroke="#000000" points="115.2895,-334.4132 111.7894,-324.4133 108.2895,-334.4133 115.2895,-334.4132"/>
</g>
<!-- cmorQC -->
<g id="node3" class="node">
<title>cmorQC</title>
<ellipse fill="none" stroke="#000000" cx="111.7894" cy="-234" rx="60.3942" ry="18"/>
<text text-anchor="middle" x="111.7894" y="-229.8" font-family="Times,serif" font-size="14.00" fill="#000000">Quality&#45;check</text>
</g>
<!-- cmorization&#45;&gt;cmorQC -->
<g id="edge2" class="edge">
<title>cmorization&#45;&gt;cmorQC</title>
<path fill="none" stroke="#000000" stroke-dasharray="5,2" d="M111.7894,-287.8314C111.7894,-280.131 111.7894,-270.9743 111.7894,-262.4166"/>
<polygon fill="#000000" stroke="#000000" points="115.2895,-262.4132 111.7894,-252.4133 108.2895,-262.4133 115.2895,-262.4132"/>
</g>
<!-- cmorLink -->
<g id="node4" class="node">
<title>cmorLink</title>
<ellipse fill="none" stroke="#000000" cx="111.7894" cy="-162" rx="111.5792" ry="18"/>
<text text-anchor="middle" x="111.7894" y="-157.8" font-family="Times,serif" font-size="14.00" fill="#000000">Link to DKRZ fold structure</text>
</g>
<!-- cmorQC&#45;&gt;cmorLink -->
<g id="edge3" class="edge">
<title>cmorQC&#45;&gt;cmorLink</title>
<path fill="none" stroke="#000000" stroke-dasharray="5,2" d="M111.7894,-215.8314C111.7894,-208.131 111.7894,-198.9743 111.7894,-190.4166"/>
<polygon fill="#000000" stroke="#000000" points="115.2895,-190.4132 111.7894,-180.4133 108.2895,-190.4133 115.2895,-190.4132"/>
</g>
<!-- cmorSha256sum -->
<g id="node5" class="node">
<title>cmorSha256sum</title>
<ellipse fill="none" stroke="#000000" cx="111.7894" cy="-90" rx="86.9639" ry="18"/>
<text text-anchor="middle" x="111.7894" y="-85.8" font-family="Times,serif" font-size="14.00" fill="#000000">Calculate Sha256sum</text>
</g>
<!-- cmorLink&#45;&gt;cmorSha256sum -->
<g id="edge4" class="edge">
<title>cmorLink&#45;&gt;cmorSha256sum</title>
<path fill="none" stroke="#000000" stroke-dasharray="5,2" d="M111.7894,-143.8314C111.7894,-136.131 111.7894,-126.9743 111.7894,-118.4166"/>
<polygon fill="#000000" stroke="#000000" points="115.2895,-118.4132 111.7894,-108.4133 108.2895,-118.4133 115.2895,-118.4132"/>
</g>
<!-- publish -->
<g id="node6" class="node">
<title>publish</title>
<polygon fill="none" stroke="#000000" points="166.9272,-36 56.6516,-36 56.6516,0 166.9272,0 166.9272,-36"/>
<text text-anchor="middle" x="111.7894" y="-13.8" font-family="Times,serif" font-size="14.00" fill="#000000">Publish to ESGF</text>
</g>
<!-- cmorSha256sum&#45;&gt;publish -->
<g id="edge5" class="edge">
<title>cmorSha256sum&#45;&gt;publish</title>
<path fill="none" stroke="#000000" stroke-dasharray="5,2" d="M111.7894,-71.8314C111.7894,-64.131 111.7894,-54.9743 111.7894,-46.4166"/>
<polygon fill="#000000" stroke="#000000" points="115.2895,-46.4132 111.7894,-36.4133 108.2895,-46.4133 115.2895,-46.4132"/>
</g>
</g>
</svg>
