<?xml version="1.0" encoding="UTF-8" standalone="no"?>
<!DOCTYPE svg PUBLIC "-//W3C//DTD SVG 1.1//EN"
 "http://www.w3.org/Graphics/SVG/1.1/DTD/svg11.dtd">
<!-- Generated by graphviz version 2.40.1 (0)
 -->
<!-- Title: G Pages: 1 -->
<svg width="483pt" height="1554pt"
 viewBox="0.00 0.00 482.60 1554.00" xmlns="http://www.w3.org/2000/svg" xmlns:xlink="http://www.w3.org/1999/xlink">
<g id="graph0" class="graph" transform="scale(1 1) rotate(0) translate(4 1550)">
<title>G</title>
<polygon fill="#ffffff" stroke="transparent" points="-4,4 -4,-1550 478.5952,-1550 478.5952,4 -4,4"/>
<!-- v20190815 -->
<g id="node1" class="node">
<title>v20190815</title>
<polygon fill="none" stroke="#000000" points="220.5952,-1546 136.5952,-1546 136.5952,-1510 220.5952,-1510 220.5952,-1546"/>
<text text-anchor="middle" x="178.5952" y="-1524.3" font-family="Times,serif" font-size="14.00" fill="#000000">v20190815</text>
</g>
<!-- v20190817 -->
<g id="node3" class="node">
<title>v20190817</title>
<ellipse fill="none" stroke="#000000" cx="86.5952" cy="-1441" rx="54.6905" ry="18"/>
<text text-anchor="middle" x="86.5952" y="-1437.3" font-family="Times,serif" font-size="14.00" fill="#000000">v20190817</text>
</g>
<!-- v20190815&#45;&gt;v20190817 -->
<g id="edge1" class="edge">
<title>v20190815&#45;&gt;v20190817</title>
<path fill="none" stroke="#000000" stroke-dasharray="5,2" d="M136.5384,-1516.7766C114.927,-1510.0702 91.8339,-1501.1049 85.5952,-1492 81.0704,-1485.3966 79.8656,-1477.0981 80.2004,-1469.1249"/>
<polygon fill="#000000" stroke="#000000" points="83.6991,-1469.3378 81.3776,-1459.0005 76.746,-1468.5293 83.6991,-1469.3378"/>
<text text-anchor="middle" x="125.0952" y="-1480.8" font-family="Times,serif" font-size="14.00" fill="#000000">Lmon,LImon</text>
</g>
<!-- v20190920 -->
<g id="node4" class="node">
<title>v20190920</title>
<ellipse fill="none" stroke="#000000" cx="178.5952" cy="-1354" rx="54.6905" ry="18"/>
<text text-anchor="middle" x="178.5952" y="-1350.3" font-family="Times,serif" font-size="14.00" fill="#000000">v20190920</text>
</g>
<!-- v20190815&#45;&gt;v20190920 -->
<g id="edge2" class="edge">
<title>v20190815&#45;&gt;v20190920</title>
<path fill="none" stroke="#000000" stroke-width="2" d="M178.5952,-1509.7078C178.5952,-1479.3436 178.5952,-1418.3226 178.5952,-1382.3464"/>
<polygon fill="#000000" stroke="#000000" stroke-width="2" points="182.0953,-1382.0471 178.5952,-1372.0471 175.0953,-1382.0471 182.0953,-1382.0471"/>
<text text-anchor="middle" x="194.0952" y="-1437.3" font-family="Times,serif" font-size="14.00" fill="#000000">trunk</text>
</g>
<!-- v20190909 -->
<g id="node5" class="node">
<title>v20190909</title>
<ellipse fill="none" stroke="#000000" cx="282.5952" cy="-1441" rx="54.6905" ry="18"/>
<text text-anchor="middle" x="282.5952" y="-1437.3" font-family="Times,serif" font-size="14.00" fill="#000000">v20190909</text>
</g>
<!-- v20190815&#45;&gt;v20190909 -->
<g id="edge3" class="edge">
<title>v20190815&#45;&gt;v20190909</title>
<path fill="none" stroke="#000000" stroke-dasharray="5,2" d="M200.144,-1509.9735C215.892,-1496.7997 237.3931,-1478.8132 254.4903,-1464.5108"/>
<polygon fill="#000000" stroke="#000000" points="257.0607,-1466.9237 262.4851,-1457.8228 252.5693,-1461.5546 257.0607,-1466.9237"/>
<text text-anchor="middle" x="254.5952" y="-1480.8" font-family="Times,serif" font-size="14.00" fill="#000000">Emon</text>
</g>
<!-- next release -->
<g id="node2" class="node">
<title>next release</title>
<polygon fill="none" stroke="#c0c0c0" points="174.8751,-10.5442 174.8751,-25.4558 140.7355,-36 92.4548,-36 58.3152,-25.4558 58.3152,-10.5442 92.4548,0 140.7355,0 174.8751,-10.5442"/>
<text text-anchor="middle" x="116.5952" y="-14.3" font-family="Times,serif" font-size="14.00" fill="#000000">next release</text>
</g>
<!-- v20190817&#45;&gt;v20190920 -->
<g id="edge4" class="edge">
<title>v20190817&#45;&gt;v20190920</title>
<path fill="none" stroke="#000000" stroke-dasharray="5,2" d="M99.5604,-1423.0295C107.3822,-1412.7893 117.8822,-1400.0393 128.5952,-1390 133.7342,-1385.1841 139.5374,-1380.464 145.3231,-1376.109"/>
<polygon fill="#000000" stroke="#000000" points="147.6722,-1378.7287 153.7079,-1370.0211 143.5595,-1373.0643 147.6722,-1378.7287"/>
<text text-anchor="middle" x="146.5952" y="-1393.8" font-family="Times,serif" font-size="14.00" fill="#000000">merge</text>
</g>
<!-- v20191009 -->
<g id="node6" class="node">
<title>v20191009</title>
<ellipse fill="none" stroke="#000000" cx="87.5952" cy="-1267" rx="54.6905" ry="18"/>
<text text-anchor="middle" x="87.5952" y="-1263.3" font-family="Times,serif" font-size="14.00" fill="#000000">v20191009</text>
</g>
<!-- v20190920&#45;&gt;v20191009 -->
<g id="edge6" class="edge">
<title>v20190920&#45;&gt;v20191009</title>
<path fill="none" stroke="#000000" stroke-dasharray="5,2" d="M132.1978,-1344.1443C117.6855,-1338.7831 103.0201,-1330.563 93.5952,-1318 88.7591,-1311.5538 86.5902,-1303.3016 85.8078,-1295.3223"/>
<polygon fill="#000000" stroke="#000000" points="89.3005,-1295.043 85.4702,-1285.1648 82.3044,-1295.2756 89.3005,-1295.043"/>
<text text-anchor="middle" x="129.0952" y="-1306.8" font-family="Times,serif" font-size="14.00" fill="#000000">Omon (bgc)</text>
</g>
<!-- v20191108 -->
<g id="node7" class="node">
<title>v20191108</title>
<ellipse fill="none" stroke="#000000" cx="181.5952" cy="-1180" rx="54.6905" ry="18"/>
<text text-anchor="middle" x="181.5952" y="-1176.3" font-family="Times,serif" font-size="14.00" fill="#000000">v20191108</text>
</g>
<!-- v20190920&#45;&gt;v20191108 -->
<g id="edge7" class="edge">
<title>v20190920&#45;&gt;v20191108</title>
<path fill="none" stroke="#000000" stroke-width="2" d="M178.9105,-1335.7078C179.4341,-1305.3436 180.4861,-1244.3226 181.1064,-1208.3464"/>
<polygon fill="#000000" stroke="#000000" stroke-width="2" points="184.611,-1208.106 181.284,-1198.0471 177.612,-1207.9852 184.611,-1208.106"/>
<text text-anchor="middle" x="196.0952" y="-1263.3" font-family="Times,serif" font-size="14.00" fill="#000000">trunk</text>
</g>
<!-- v20191022 -->
<g id="node8" class="node">
<title>v20191022</title>
<ellipse fill="none" stroke="#000000" cx="282.5952" cy="-1267" rx="54.6905" ry="18"/>
<text text-anchor="middle" x="282.5952" y="-1263.3" font-family="Times,serif" font-size="14.00" fill="#000000">v20191022</text>
</g>
<!-- v20190920&#45;&gt;v20191022 -->
<g id="edge8" class="edge">
<title>v20190920&#45;&gt;v20191022</title>
<path fill="none" stroke="#000000" stroke-dasharray="5,2" d="M198.6474,-1337.2255C214.5152,-1323.9515 236.863,-1305.2567 254.5116,-1290.493"/>
<polygon fill="#000000" stroke="#000000" points="256.8252,-1293.1207 262.2496,-1284.0198 252.3338,-1287.7517 256.8252,-1293.1207"/>
<text text-anchor="middle" x="272.0952" y="-1306.8" font-family="Times,serif" font-size="14.00" fill="#000000">Omon (bgc)</text>
</g>
<!-- v20190909&#45;&gt;v20190920 -->
<g id="edge5" class="edge">
<title>v20190909&#45;&gt;v20190920</title>
<path fill="none" stroke="#000000" stroke-dasharray="5,2" d="M262.5429,-1424.2255C246.6751,-1410.9515 224.3273,-1392.2567 206.6787,-1377.493"/>
<polygon fill="#000000" stroke="#000000" points="208.8566,-1374.7517 198.9407,-1371.0198 204.3651,-1380.1207 208.8566,-1374.7517"/>
<text text-anchor="middle" x="254.5952" y="-1393.8" font-family="Times,serif" font-size="14.00" fill="#000000">merge</text>
</g>
<!-- v20191009&#45;&gt;v20191108 -->
<g id="edge10" class="edge">
<title>v20191009&#45;&gt;v20191108</title>
<path fill="none" stroke="#000000" stroke-dasharray="5,2" d="M99.7261,-1249.3757C107.3373,-1239.0097 117.7405,-1226.0146 128.5952,-1216 134.1033,-1210.9181 140.3832,-1206.0177 146.6472,-1201.5551"/>
<polygon fill="#000000" stroke="#000000" points="148.8303,-1204.3021 155.105,-1195.7652 144.8761,-1198.5259 148.8303,-1204.3021"/>
<text text-anchor="middle" x="146.5952" y="-1219.8" font-family="Times,serif" font-size="14.00" fill="#000000">merge</text>
</g>
<!-- v20191018 -->
<g id="node9" class="node">
<title>v20191018</title>
<ellipse fill="none" stroke="#000000" cx="54.5952" cy="-1180" rx="54.6905" ry="18"/>
<text text-anchor="middle" x="54.5952" y="-1176.3" font-family="Times,serif" font-size="14.00" fill="#000000">v20191018</text>
</g>
<!-- v20191009&#45;&gt;v20191018 -->
<g id="edge9" class="edge">
<title>v20191009&#45;&gt;v20191018</title>
<path fill="none" stroke="#000000" stroke-dasharray="5,2" d="M71.5524,-1249.4555C67.3171,-1243.9166 63.2052,-1237.5289 60.5952,-1231 57.7284,-1223.829 56.1148,-1215.6715 55.2344,-1208.0162"/>
<polygon fill="#000000" stroke="#000000" points="58.7219,-1207.7191 54.4396,-1198.0283 51.744,-1208.2744 58.7219,-1207.7191"/>
<text text-anchor="middle" x="82.0952" y="-1219.8" font-family="Times,serif" font-size="14.00" fill="#000000">bug fix</text>
</g>
<!-- v20200206 -->
<g id="node10" class="node">
<title>v20200206</title>
<ellipse fill="none" stroke="#000000" cx="98.5952" cy="-1107" rx="54.6905" ry="18"/>
<text text-anchor="middle" x="98.5952" y="-1103.3" font-family="Times,serif" font-size="14.00" fill="#000000">v20200206</text>
</g>
<!-- v20191108&#45;&gt;v20200206 -->
<g id="edge12" class="edge">
<title>v20191108&#45;&gt;v20200206</title>
<path fill="none" stroke="#000000" stroke-dasharray="5,2" d="M162.3447,-1163.0688C151.4238,-1153.4637 137.5844,-1141.2917 125.5928,-1130.7449"/>
<polygon fill="#000000" stroke="#000000" points="127.8492,-1128.0683 118.0288,-1124.0922 123.2262,-1133.3246 127.8492,-1128.0683"/>
</g>
<!-- v20200218 -->
<g id="node11" class="node">
<title>v20200218</title>
<ellipse fill="none" stroke="#000000" cx="181.5952" cy="-1034" rx="54.6905" ry="18"/>
<text text-anchor="middle" x="181.5952" y="-1030.3" font-family="Times,serif" font-size="14.00" fill="#000000">v20200218</text>
</g>
<!-- v20191108&#45;&gt;v20200218 -->
<g id="edge14" class="edge">
<title>v20191108&#45;&gt;v20200218</title>
<path fill="none" stroke="#000000" stroke-width="2" d="M181.5952,-1161.8042C181.5952,-1136.8868 181.5952,-1091.8938 181.5952,-1062.4877"/>
<polygon fill="#000000" stroke="#000000" stroke-width="2" points="185.0953,-1062.4251 181.5952,-1052.4251 178.0953,-1062.4251 185.0953,-1062.4251"/>
</g>
<!-- v20200217 -->
<g id="node12" class="node">
<title>v20200217</title>
<ellipse fill="none" stroke="#000000" cx="264.5952" cy="-1107" rx="54.6905" ry="18"/>
<text text-anchor="middle" x="264.5952" y="-1103.3" font-family="Times,serif" font-size="14.00" fill="#000000">v20200217</text>
</g>
<!-- v20191108&#45;&gt;v20200217 -->
<g id="edge15" class="edge">
<title>v20191108&#45;&gt;v20200217</title>
<path fill="none" stroke="#000000" stroke-dasharray="5,2" d="M200.8456,-1163.0688C211.7665,-1153.4637 225.6059,-1141.2917 237.5975,-1130.7449"/>
<polygon fill="#000000" stroke="#000000" points="239.9641,-1133.3246 245.1615,-1124.0922 235.3411,-1128.0683 239.9641,-1133.3246"/>
</g>
<!-- v20191022&#45;&gt;v20191108 -->
<g id="edge11" class="edge">
<title>v20191022&#45;&gt;v20191108</title>
<path fill="none" stroke="#000000" stroke-dasharray="5,2" d="M262.6408,-1249.8116C247.3253,-1236.619 226.0058,-1218.2547 209.0767,-1203.6723"/>
<polygon fill="#000000" stroke="#000000" points="211.0253,-1200.7313 201.1644,-1196.8567 206.4568,-1206.035 211.0253,-1200.7313"/>
<text text-anchor="middle" x="255.5952" y="-1219.8" font-family="Times,serif" font-size="14.00" fill="#000000">merge</text>
</g>
<!-- v20200206&#45;&gt;v20200218 -->
<g id="edge13" class="edge">
<title>v20200206&#45;&gt;v20200218</title>
<path fill="none" stroke="#000000" stroke-dasharray="5,2" d="M117.8456,-1090.0688C128.7665,-1080.4637 142.6059,-1068.2917 154.5975,-1057.7449"/>
<polygon fill="#000000" stroke="#000000" points="156.9641,-1060.3246 162.1615,-1051.0922 152.3411,-1055.0683 156.9641,-1060.3246"/>
</g>
<!-- v20200702 -->
<g id="node13" class="node">
<title>v20200702</title>
<ellipse fill="none" stroke="#000000" cx="181.5952" cy="-961" rx="54.6905" ry="18"/>
<text text-anchor="middle" x="181.5952" y="-957.3" font-family="Times,serif" font-size="14.00" fill="#000000">v20200702</text>
</g>
<!-- v20200218&#45;&gt;v20200702 -->
<g id="edge17" class="edge">
<title>v20200218&#45;&gt;v20200702</title>
<path fill="none" stroke="#000000" stroke-width="2" d="M181.5952,-1015.9551C181.5952,-1007.8828 181.5952,-998.1764 181.5952,-989.1817"/>
<polygon fill="#000000" stroke="#000000" stroke-width="2" points="185.0953,-989.0903 181.5952,-979.0904 178.0953,-989.0904 185.0953,-989.0903"/>
</g>
<!-- v20200217&#45;&gt;v20200218 -->
<g id="edge16" class="edge">
<title>v20200217&#45;&gt;v20200218</title>
<path fill="none" stroke="#000000" stroke-dasharray="5,2" d="M245.3447,-1090.0688C234.4238,-1080.4637 220.5844,-1068.2917 208.5928,-1057.7449"/>
<polygon fill="#000000" stroke="#000000" points="210.8492,-1055.0683 201.0288,-1051.0922 206.2262,-1060.3246 210.8492,-1055.0683"/>
</g>
<!-- v20201001 -->
<g id="node14" class="node">
<title>v20201001</title>
<ellipse fill="none" stroke="#000000" cx="181.5952" cy="-888" rx="54.6905" ry="18"/>
<text text-anchor="middle" x="181.5952" y="-884.3" font-family="Times,serif" font-size="14.00" fill="#000000">v20201001</text>
</g>
<!-- v20200702&#45;&gt;v20201001 -->
<g id="edge18" class="edge">
<title>v20200702&#45;&gt;v20201001</title>
<path fill="none" stroke="#000000" stroke-width="2" d="M181.5952,-942.9551C181.5952,-934.8828 181.5952,-925.1764 181.5952,-916.1817"/>
<polygon fill="#000000" stroke="#000000" stroke-width="2" points="185.0953,-916.0903 181.5952,-906.0904 178.0953,-916.0904 185.0953,-916.0903"/>
</g>
<!-- v20210118 -->
<g id="node15" class="node">
<title>v20210118</title>
<ellipse fill="none" stroke="#000000" cx="90.5952" cy="-801" rx="54.6905" ry="18"/>
<text text-anchor="middle" x="90.5952" y="-797.3" font-family="Times,serif" font-size="14.00" fill="#000000">v20210118</text>
</g>
<!-- v20201001&#45;&gt;v20210118 -->
<g id="edge19" class="edge">
<title>v20201001&#45;&gt;v20210118</title>
<path fill="none" stroke="#000000" stroke-dasharray="5,2" d="M145.3957,-874.3474C134.1283,-868.7497 122.3716,-861.3497 113.5952,-852 107.3839,-845.383 102.6427,-836.8022 99.1259,-828.5726"/>
<polygon fill="#000000" stroke="#000000" points="102.387,-827.3013 95.5453,-819.2118 95.849,-829.8023 102.387,-827.3013"/>
<text text-anchor="middle" x="140.5952" y="-840.8" font-family="Times,serif" font-size="14.00" fill="#000000">republish</text>
</g>
<!-- v20210218 -->
<g id="node16" class="node">
<title>v20210218</title>
<ellipse fill="none" stroke="#000000" cx="181.5952" cy="-714" rx="54.6905" ry="18"/>
<text text-anchor="middle" x="181.5952" y="-710.3" font-family="Times,serif" font-size="14.00" fill="#000000">v20210218</text>
</g>
<!-- v20201001&#45;&gt;v20210218 -->
<g id="edge21" class="edge">
<title>v20201001&#45;&gt;v20210218</title>
<path fill="none" stroke="#000000" stroke-width="2" d="M181.5952,-869.7078C181.5952,-839.3436 181.5952,-778.3226 181.5952,-742.3464"/>
<polygon fill="#000000" stroke="#000000" stroke-width="2" points="185.0953,-742.0471 181.5952,-732.0471 178.0953,-742.0471 185.0953,-742.0471"/>
<text text-anchor="middle" x="197.0952" y="-797.3" font-family="Times,serif" font-size="14.00" fill="#000000">trunk</text>
</g>
<!-- v20210203 -->
<g id="node17" class="node">
<title>v20210203</title>
<ellipse fill="none" stroke="#000000" cx="285.5952" cy="-801" rx="54.6905" ry="18"/>
<text text-anchor="middle" x="285.5952" y="-797.3" font-family="Times,serif" font-size="14.00" fill="#000000">v20210203</text>
</g>
<!-- v20201001&#45;&gt;v20210203 -->
<g id="edge22" class="edge">
<title>v20201001&#45;&gt;v20210203</title>
<path fill="none" stroke="#000000" stroke-dasharray="5,2" d="M201.6474,-871.2255C217.5152,-857.9515 239.863,-839.2567 257.5116,-824.493"/>
<polygon fill="#000000" stroke="#000000" points="259.8252,-827.1207 265.2496,-818.0198 255.3338,-821.7517 259.8252,-827.1207"/>
<text text-anchor="middle" x="352.0952" y="-840.8" font-family="Times,serif" font-size="14.00" fill="#000000">iLAMB and zg500 (#262,#263, #251)</text>
</g>
<!-- v20210118&#45;&gt;v20210218 -->
<g id="edge20" class="edge">
<title>v20210118&#45;&gt;v20210218</title>
<path fill="none" stroke="#000000" stroke-dasharray="5,2" d="M108.5738,-783.8116C124.5274,-768.5593 147.7116,-746.3942 163.6538,-731.1527"/>
</g>
<!-- v20210319 -->
<g id="node18" class="node">
<title>v20210319</title>
<ellipse fill="none" stroke="#000000" cx="181.5952" cy="-627" rx="54.6905" ry="18"/>
<text text-anchor="middle" x="181.5952" y="-623.3" font-family="Times,serif" font-size="14.00" fill="#000000">v20210319</text>
</g>
<!-- v20210218&#45;&gt;v20210319 -->
<g id="edge24" class="edge">
<title>v20210218&#45;&gt;v20210319</title>
<path fill="none" stroke="#000000" stroke-width="2" d="M181.5952,-695.9735C181.5952,-684.1918 181.5952,-668.5607 181.5952,-655.1581"/>
<polygon fill="#000000" stroke="#000000" stroke-width="2" points="185.0953,-655.0033 181.5952,-645.0034 178.0953,-655.0034 185.0953,-655.0033"/>
<text text-anchor="middle" x="274.0952" y="-666.8" font-family="Times,serif" font-size="14.00" fill="#000000">fix #269 #270 #271 #272 #273</text>
</g>
<!-- v20210203&#45;&gt;v20210218 -->
<g id="edge23" class="edge">
<title>v20210203&#45;&gt;v20210218</title>
<path fill="none" stroke="#000000" stroke-dasharray="5,2" d="M265.5429,-784.2255C249.6751,-770.9515 227.3273,-752.2567 209.6787,-737.493"/>
<polygon fill="#000000" stroke="#000000" points="211.8566,-734.7517 201.9407,-731.0198 207.3651,-740.1207 211.8566,-734.7517"/>
<text text-anchor="middle" x="257.5952" y="-753.8" font-family="Times,serif" font-size="14.00" fill="#000000">merge</text>
</g>
<!-- v20210521 -->
<g id="node19" class="node">
<title>v20210521</title>
<ellipse fill="none" stroke="#000000" cx="181.5952" cy="-540" rx="54.6905" ry="18"/>
<text text-anchor="middle" x="181.5952" y="-536.3" font-family="Times,serif" font-size="14.00" fill="#000000">v20210521</text>
</g>
<!-- v20210319&#45;&gt;v20210521 -->
<g id="edge25" class="edge">
<title>v20210319&#45;&gt;v20210521</title>
<path fill="none" stroke="#000000" stroke-width="2" d="M181.5952,-608.9735C181.5952,-597.1918 181.5952,-581.5607 181.5952,-568.1581"/>
<polygon fill="#000000" stroke="#000000" stroke-width="2" points="185.0953,-568.0033 181.5952,-558.0034 178.0953,-568.0034 185.0953,-568.0033"/>
<text text-anchor="middle" x="206.5952" y="-579.8" font-family="Times,serif" font-size="14.00" fill="#000000">fix #280</text>
</g>
<!-- v20210811 -->
<g id="node20" class="node">
<title>v20210811</title>
<ellipse fill="none" stroke="#000000" cx="181.5952" cy="-453" rx="54.6905" ry="18"/>
<text text-anchor="middle" x="181.5952" y="-449.3" font-family="Times,serif" font-size="14.00" fill="#000000">v20210811</text>
</g>
<!-- v20210521&#45;&gt;v20210811 -->
<g id="edge26" class="edge">
<title>v20210521&#45;&gt;v20210811</title>
<path fill="none" stroke="#000000" stroke-width="2" d="M181.5952,-521.9735C181.5952,-510.1918 181.5952,-494.5607 181.5952,-481.1581"/>
<polygon fill="#000000" stroke="#000000" stroke-width="2" points="185.0953,-481.0033 181.5952,-471.0034 178.0953,-481.0034 185.0953,-481.0033"/>
<text text-anchor="middle" x="240.5952" y="-492.8" font-family="Times,serif" font-size="14.00" fill="#000000">fix #281,#282,#299</text>
</g>
<!-- v20210818 -->
<g id="node21" class="node">
<title>v20210818</title>
<ellipse fill="none" stroke="#000000" cx="181.5952" cy="-366" rx="54.6905" ry="18"/>
<text text-anchor="middle" x="181.5952" y="-362.3" font-family="Times,serif" font-size="14.00" fill="#000000">v20210818</text>
</g>
<!-- v20210811&#45;&gt;v20210818 -->
<g id="edge27" class="edge">
<title>v20210811&#45;&gt;v20210818</title>
<path fill="none" stroke="#000000" stroke-width="2" d="M181.5952,-434.9735C181.5952,-423.1918 181.5952,-407.5607 181.5952,-394.1581"/>
<polygon fill="#000000" stroke="#000000" stroke-width="2" points="185.0953,-394.0033 181.5952,-384.0034 178.0953,-394.0034 185.0953,-394.0033"/>
<text text-anchor="middle" x="206.5952" y="-405.8" font-family="Times,serif" font-size="14.00" fill="#000000">fix #286</text>
</g>
<!-- v20210908 -->
<g id="node22" class="node">
<title>v20210908</title>
<ellipse fill="none" stroke="#000000" cx="181.5952" cy="-279" rx="54.6905" ry="18"/>
<text text-anchor="middle" x="181.5952" y="-275.3" font-family="Times,serif" font-size="14.00" fill="#000000">v20210908</text>
</g>
<!-- v20210818&#45;&gt;v20210908 -->
<g id="edge28" class="edge">
<title>v20210818&#45;&gt;v20210908</title>
<path fill="none" stroke="#000000" stroke-width="2" d="M181.5952,-347.9735C181.5952,-336.1918 181.5952,-320.5607 181.5952,-307.1581"/>
<polygon fill="#000000" stroke="#000000" stroke-width="2" points="185.0953,-307.0033 181.5952,-297.0034 178.0953,-307.0034 185.0953,-307.0033"/>
<text text-anchor="middle" x="298.5952" y="-318.8" font-family="Times,serif" font-size="14.00" fill="#000000">add snowmxrat for Emon and 6hrPlevPt</text>
</g>
<!-- v20221027 -->
<g id="node23" class="node">
<title>v20221027</title>
<ellipse fill="none" stroke="#000000" cx="181.5952" cy="-192" rx="54.6905" ry="18"/>
<text text-anchor="middle" x="181.5952" y="-188.3" font-family="Times,serif" font-size="14.00" fill="#000000">v20221027</text>
</g>
<!-- v20210908&#45;&gt;v20221027 -->
<g id="edge29" class="edge">
<title>v20210908&#45;&gt;v20221027</title>
<path fill="none" stroke="#000000" stroke-width="2" d="M181.5952,-260.9735C181.5952,-249.1918 181.5952,-233.5607 181.5952,-220.1581"/>
<polygon fill="#000000" stroke="#000000" stroke-width="2" points="185.0953,-220.0033 181.5952,-210.0034 178.0953,-220.0034 185.0953,-220.0033"/>
<text text-anchor="middle" x="328.0952" y="-231.8" font-family="Times,serif" font-size="14.00" fill="#000000">fixed missing values for historical r2i1p1f1 6hrLev</text>
</g>
<!-- v20230616 -->
<g id="node24" class="node">
<title>v20230616</title>
<ellipse fill="none" stroke="#000000" cx="181.5952" cy="-105" rx="54.6905" ry="18"/>
<text text-anchor="middle" x="181.5952" y="-101.3" font-family="Times,serif" font-size="14.00" fill="#000000">v20230616</text>
</g>
<!-- v20221027&#45;&gt;v20230616 -->
<g id="edge30" class="edge">
<title>v20221027&#45;&gt;v20230616</title>
<path fill="none" stroke="#000000" stroke-width="2" d="M181.5952,-173.9735C181.5952,-162.1918 181.5952,-146.5607 181.5952,-133.1581"/>
<polygon fill="#000000" stroke="#000000" stroke-width="2" points="185.0953,-133.0033 181.5952,-123.0034 178.0953,-133.0034 185.0953,-133.0033"/>
<text text-anchor="middle" x="237.0952" y="-144.8" font-family="Times,serif" font-size="14.00" fill="#000000">add 3hr precip.data</text>
</g>
<!-- v20230616&#45;&gt;next release -->
<g id="edge32" class="edge">
<title>v20230616&#45;&gt;next release</title>
<path fill="none" stroke="#000000" stroke-width="2" d="M168.4414,-87.3943C159.2254,-75.0589 146.746,-58.3558 136.3402,-44.428"/>
<polygon fill="#000000" stroke="#000000" stroke-width="2" points="138.9659,-42.0947 130.1768,-36.1785 133.3582,-46.2844 138.9659,-42.0947"/>
<text text-anchor="middle" x="169.0952" y="-57.8" font-family="Times,serif" font-size="14.00" fill="#000000">trunk</text>
</g>
<!-- v20250113 -->
<g id="node25" class="node">
<title>v20250113</title>
<ellipse fill="none" stroke="#000000" cx="247.5952" cy="-18" rx="54.6905" ry="18"/>
<text text-anchor="middle" x="247.5952" y="-14.3" font-family="Times,serif" font-size="14.00" fill="#000000">v20250113</text>
</g>
<!-- v20230616&#45;&gt;v20250113 -->
<g id="edge31" class="edge">
<title>v20230616&#45;&gt;v20250113</title>
<path fill="none" stroke="#000000" stroke-dasharray="5,2" d="M194.9512,-87.3943C204.4339,-74.8944 217.3189,-57.9096 227.9678,-43.8724"/>
<polygon fill="#000000" stroke="#000000" points="231.0035,-45.6619 234.2589,-35.5796 225.4266,-41.4311 231.0035,-45.6619"/>
<text text-anchor="middle" x="283.5952" y="-57.8" font-family="Times,serif" font-size="14.00" fill="#000000">cmor MM amip Amon</text>
</g>
</g>
</svg>
