<?xml version="1.0" encoding="UTF-8" standalone="no"?>
<!DOCTYPE svg PUBLIC "-//W3C//DTD SVG 1.1//EN"
 "http://www.w3.org/Graphics/SVG/1.1/DTD/svg11.dtd">
<!-- Generated by graphviz version 2.40.1 (20161225.0304)
 -->
<!-- Title: G Pages: 1 -->
<svg width="320pt" height="388pt"
 viewBox="0.00 0.00 319.80 388.00" xmlns="http://www.w3.org/2000/svg" xmlns:xlink="http://www.w3.org/1999/xlink">
<g id="graph0" class="graph" transform="scale(1 1) rotate(0) translate(4 384)">
<title>G</title>
<polygon fill="#ffffff" stroke="transparent" points="-4,4 -4,-384 315.8048,-384 315.8048,4 -4,4"/>
<!-- v20190815 -->
<g id="node1" class="node">
<title>v20190815</title>
<polygon fill="none" stroke="#000000" points="204.4024,-380 125.4024,-380 125.4024,-344 204.4024,-344 204.4024,-380"/>
<text text-anchor="middle" x="164.9024" y="-357.8" font-family="Times,serif" font-size="14.00" fill="#000000">v20190815</text>
</g>
<!-- v20190817 -->
<g id="node2" class="node">
<title>v20190817</title>
<ellipse fill="none" stroke="#000000" cx="76.9024" cy="-276" rx="49.805" ry="18"/>
<text text-anchor="middle" x="76.9024" y="-271.8" font-family="Times,serif" font-size="14.00" fill="#000000">v20190817</text>
</g>
<!-- v20190815&#45;&gt;v20190817 -->
<g id="edge1" class="edge">
<title>v20190815&#45;&gt;v20190817</title>
<path fill="none" stroke="#000000" stroke-dasharray="5,2" d="M125.2238,-356.2397C106.9726,-351.3875 86.9517,-342.4519 75.8575,-326 71.5857,-319.6652 70.3742,-311.7774 70.6239,-304.1528"/>
<polygon fill="#000000" stroke="#000000" points="74.1165,-304.4095 71.7198,-294.0893 67.1577,-303.6516 74.1165,-304.4095"/>
<text text-anchor="middle" x="113.4249" y="-314.8" font-family="Times,serif" font-size="14.00" fill="#000000">Lmon,LImon</text>
</g>
<!-- v20190920 -->
<g id="node3" class="node">
<title>v20190920</title>
<ellipse fill="none" stroke="#000000" cx="164.9024" cy="-190" rx="49.805" ry="18"/>
<text text-anchor="middle" x="164.9024" y="-185.8" font-family="Times,serif" font-size="14.00" fill="#000000">v20190920</text>
</g>
<!-- v20190815&#45;&gt;v20190920 -->
<g id="edge2" class="edge">
<title>v20190815&#45;&gt;v20190920</title>
<path fill="none" stroke="#000000" stroke-width="2" d="M164.9024,-343.9181C164.9024,-313.981 164.9024,-253.8972 164.9024,-218.2989"/>
<polygon fill="#000000" stroke="#000000" stroke-width="2" points="168.4025,-218.0977 164.9024,-208.0977 161.4025,-218.0978 168.4025,-218.0977"/>
<text text-anchor="middle" x="179.6783" y="-271.8" font-family="Times,serif" font-size="14.00" fill="#000000">trunk</text>
</g>
<!-- v20190909 -->
<g id="node4" class="node">
<title>v20190909</title>
<ellipse fill="none" stroke="#000000" cx="261.9024" cy="-276" rx="49.805" ry="18"/>
<text text-anchor="middle" x="261.9024" y="-271.8" font-family="Times,serif" font-size="14.00" fill="#000000">v20190909</text>
</g>
<!-- v20190815&#45;&gt;v20190909 -->
<g id="edge3" class="edge">
<title>v20190815&#45;&gt;v20190909</title>
<path fill="none" stroke="#000000" stroke-dasharray="5,2" d="M185.4736,-343.7616C199.965,-330.9136 219.5025,-313.5917 235.1963,-299.6776"/>
<polygon fill="#000000" stroke="#000000" points="237.8449,-302.0069 243.0056,-292.7539 233.2011,-296.769 237.8449,-302.0069"/>
<text text-anchor="middle" x="235.6231" y="-314.8" font-family="Times,serif" font-size="14.00" fill="#000000">Emon</text>
</g>
<!-- v20190817&#45;&gt;v20190920 -->
<g id="edge4" class="edge">
<title>v20190817&#45;&gt;v20190920</title>
<path fill="none" stroke="#000000" stroke-dasharray="5,2" d="M88.9336,-258.3812C96.2162,-248.3415 106.0328,-235.8415 116.169,-226 121.1381,-221.1753 126.7749,-216.451 132.4073,-212.0946"/>
<polygon fill="#000000" stroke="#000000" points="134.6505,-214.7879 140.5779,-206.0062 130.4679,-209.1748 134.6505,-214.7879"/>
<text text-anchor="middle" x="134.2691" y="-228.8" font-family="Times,serif" font-size="14.00" fill="#000000">merge</text>
</g>
<!-- v20191009 -->
<g id="node5" class="node">
<title>v20191009</title>
<ellipse fill="none" stroke="#000000" cx="78.9024" cy="-104" rx="49.805" ry="18"/>
<text text-anchor="middle" x="78.9024" y="-99.8" font-family="Times,serif" font-size="14.00" fill="#000000">v20191009</text>
</g>
<!-- v20190920&#45;&gt;v20191009 -->
<g id="edge6" class="edge">
<title>v20190920&#45;&gt;v20191009</title>
<path fill="none" stroke="#000000" stroke-dasharray="5,2" d="M121.968,-180.7837C107.2426,-175.4332 92.1489,-167.0555 82.8643,-154 78.4233,-147.7553 76.5674,-139.8956 76.044,-132.2691"/>
<polygon fill="#000000" stroke="#000000" points="79.5441,-132.1857 76.0387,-122.1876 72.5441,-132.1895 79.5441,-132.1857"/>
<text text-anchor="middle" x="116.9215" y="-142.8" font-family="Times,serif" font-size="14.00" fill="#000000">Omon (bgc)</text>
</g>
<!-- v20191108 -->
<g id="node6" class="node">
<title>v20191108</title>
<ellipse fill="none" stroke="#000000" cx="166.9024" cy="-18" rx="49.6572" ry="18"/>
<text text-anchor="middle" x="166.9024" y="-13.8" font-family="Times,serif" font-size="14.00" fill="#000000">v20191108</text>
</g>
<!-- v20190920&#45;&gt;v20191108 -->
<g id="edge7" class="edge">
<title>v20190920&#45;&gt;v20191108</title>
<path fill="none" stroke="#000000" stroke-width="2" d="M165.1127,-171.9181C165.4608,-141.981 166.1594,-81.8972 166.5734,-46.2989"/>
<polygon fill="#000000" stroke="#000000" stroke-width="2" points="170.0754,-46.1378 166.692,-36.0977 163.0758,-46.0563 170.0754,-46.1378"/>
<text text-anchor="middle" x="181.6783" y="-99.8" font-family="Times,serif" font-size="14.00" fill="#000000">trunk</text>
</g>
<!-- v20191022 -->
<g id="node7" class="node">
<title>v20191022</title>
<ellipse fill="none" stroke="#000000" cx="261.9024" cy="-104" rx="49.805" ry="18"/>
<text text-anchor="middle" x="261.9024" y="-99.8" font-family="Times,serif" font-size="14.00" fill="#000000">v20191022</text>
</g>
<!-- v20190920&#45;&gt;v20191022 -->
<g id="edge8" class="edge">
<title>v20190920&#45;&gt;v20191022</title>
<path fill="none" stroke="#000000" stroke-dasharray="5,2" d="M184.0665,-173.0092C198.6805,-160.0524 218.9867,-142.049 235.194,-127.6796"/>
<polygon fill="#000000" stroke="#000000" points="237.6175,-130.2085 242.7781,-120.9555 232.9736,-124.9707 237.6175,-130.2085"/>
<text text-anchor="middle" x="252.9215" y="-142.8" font-family="Times,serif" font-size="14.00" fill="#000000">Omon (bgc)</text>
</g>
<!-- v20190909&#45;&gt;v20190920 -->
<g id="edge5" class="edge">
<title>v20190909&#45;&gt;v20190920</title>
<path fill="none" stroke="#000000" stroke-dasharray="5,2" d="M242.7383,-259.0092C228.1243,-246.0524 207.8181,-228.049 191.6108,-213.6796"/>
<polygon fill="#000000" stroke="#000000" points="193.8312,-210.9707 184.0267,-206.9555 189.1874,-216.2085 193.8312,-210.9707"/>
<text text-anchor="middle" x="236.2691" y="-228.8" font-family="Times,serif" font-size="14.00" fill="#000000">merge</text>
</g>
<!-- v20191009&#45;&gt;v20191108 -->
<g id="edge10" class="edge">
<title>v20191009&#45;&gt;v20191108</title>
<path fill="none" stroke="#000000" stroke-dasharray="5,2" d="M90.1011,-86.2628C96.9396,-76.1838 106.2562,-63.6838 116.169,-54 121.4272,-48.8633 127.4756,-43.9133 133.5223,-39.4137"/>
<polygon fill="#000000" stroke="#000000" points="135.5865,-42.2405 141.6924,-33.582 131.5197,-36.543 135.5865,-42.2405"/>
<text text-anchor="middle" x="134.2691" y="-56.8" font-family="Times,serif" font-size="14.00" fill="#000000">merge</text>
</g>
<!-- v20191018 -->
<g id="node8" class="node">
<title>v20191018</title>
<ellipse fill="none" stroke="#000000" cx="49.9024" cy="-18" rx="49.805" ry="18"/>
<text text-anchor="middle" x="49.9024" y="-13.8" font-family="Times,serif" font-size="14.00" fill="#000000">v20191018</text>
</g>
<!-- v20191009&#45;&gt;v20191018 -->
<g id="edge9" class="edge">
<title>v20191009&#45;&gt;v20191018</title>
<path fill="none" stroke="#000000" stroke-dasharray="5,2" d="M63.3044,-86.8632C59.0744,-81.2418 55.0071,-74.7063 52.6163,-68 50.1842,-61.1779 49.0477,-53.5007 48.621,-46.2473"/>
<polygon fill="#000000" stroke="#000000" points="52.1174,-46.0073 48.4357,-36.0728 45.1185,-46.1349 52.1174,-46.0073"/>
<text text-anchor="middle" x="72.5455" y="-56.8" font-family="Times,serif" font-size="14.00" fill="#000000">bug fix</text>
</g>
<!-- v20191022&#45;&gt;v20191108 -->
<g id="edge11" class="edge">
<title>v20191022&#45;&gt;v20191108</title>
<path fill="none" stroke="#000000" stroke-dasharray="5,2" d="M243.1335,-87.0092C228.8208,-74.0524 208.9333,-56.049 193.0601,-41.6796"/>
<polygon fill="#000000" stroke="#000000" points="195.3948,-39.072 185.6324,-34.9555 190.697,-44.2615 195.3948,-39.072"/>
<text text-anchor="middle" x="237.2691" y="-56.8" font-family="Times,serif" font-size="14.00" fill="#000000">merge</text>
</g>
</g>
</svg>
