<?xml version="1.0" encoding="UTF-8" standalone="no"?>
<!DOCTYPE svg PUBLIC "-//W3C//DTD SVG 1.1//EN"
 "http://www.w3.org/Graphics/SVG/1.1/DTD/svg11.dtd">
<!-- Generated by graphviz version 2.44.1 (20200629.0846)
 -->
<!-- Title: G Pages: 1 -->
<svg width="321pt" height="684pt"
 viewBox="0.00 0.00 321.09 684.00" xmlns="http://www.w3.org/2000/svg" xmlns:xlink="http://www.w3.org/1999/xlink">
<g id="graph0" class="graph" transform="scale(1 1) rotate(0) translate(4 680)">
<title>G</title>
<polygon fill="white" stroke="transparent" points="-4,4 -4,-680 317.09,-680 317.09,4 -4,4"/>
<!-- v20190815 -->
<g id="node1" class="node">
<title>v20190815</title>
<polygon fill="none" stroke="black" points="204.55,-676 127.55,-676 127.55,-640 204.55,-640 204.55,-676"/>
<text text-anchor="middle" x="166.05" y="-654.3" font-family="Times,serif" font-size="14.00">v20190815</text>
</g>
<!-- v20190817 -->
<g id="node2" class="node">
<title>v20190817</title>
<ellipse fill="none" stroke="black" cx="78.05" cy="-571" rx="50.09" ry="18"/>
<text text-anchor="middle" x="78.05" y="-567.3" font-family="Times,serif" font-size="14.00">v20190817</text>
</g>
<!-- v20190815&#45;&gt;v20190817 -->
<g id="edge1" class="edge">
<title>v20190815&#45;&gt;v20190817</title>
<path fill="none" stroke="black" stroke-dasharray="5,2" d="M127.34,-651.92C108.86,-647.33 88.36,-638.6 77.05,-622 72.56,-615.41 71.42,-607.12 71.8,-599.2"/>
<polygon fill="black" stroke="black" points="75.29,-599.51 73.03,-589.16 68.34,-598.66 75.29,-599.51"/>
<text text-anchor="middle" x="114.55" y="-610.8" font-family="Times,serif" font-size="14.00">Lmon,LImon</text>
</g>
<!-- v20190920 -->
<g id="node3" class="node">
<title>v20190920</title>
<ellipse fill="none" stroke="black" cx="166.05" cy="-484" rx="50.09" ry="18"/>
<text text-anchor="middle" x="166.05" y="-480.3" font-family="Times,serif" font-size="14.00">v20190920</text>
</g>
<!-- v20190815&#45;&gt;v20190920 -->
<g id="edge2" class="edge">
<title>v20190815&#45;&gt;v20190920</title>
<path fill="none" stroke="black" stroke-width="2" d="M166.05,-639.88C166.05,-610 166.05,-548.11 166.05,-512.27"/>
<polygon fill="black" stroke="black" stroke-width="2" points="169.55,-512.05 166.05,-502.05 162.55,-512.05 169.55,-512.05"/>
<text text-anchor="middle" x="180.55" y="-567.3" font-family="Times,serif" font-size="14.00">trunk</text>
</g>
<!-- v20190909 -->
<g id="node4" class="node">
<title>v20190909</title>
<ellipse fill="none" stroke="black" cx="263.05" cy="-571" rx="50.09" ry="18"/>
<text text-anchor="middle" x="263.05" y="-567.3" font-family="Times,serif" font-size="14.00">v20190909</text>
</g>
<!-- v20190815&#45;&gt;v20190909 -->
<g id="edge3" class="edge">
<title>v20190815&#45;&gt;v20190909</title>
<path fill="none" stroke="black" stroke-dasharray="5,2" d="M185.67,-639.8C200.52,-626.79 221.03,-608.81 237.21,-594.64"/>
<polygon fill="black" stroke="black" points="239.54,-597.25 244.76,-588.03 234.93,-591.98 239.54,-597.25"/>
<text text-anchor="middle" x="237.05" y="-610.8" font-family="Times,serif" font-size="14.00">Emon</text>
</g>
<!-- v20190817&#45;&gt;v20190920 -->
<g id="edge4" class="edge">
<title>v20190817&#45;&gt;v20190920</title>
<path fill="none" stroke="black" stroke-dasharray="5,2" d="M89.25,-553.25C96.51,-543.04 106.56,-530.06 117.05,-520 122.12,-515.14 127.9,-510.42 133.67,-506.1"/>
<polygon fill="black" stroke="black" points="135.96,-508.77 142.04,-500.09 131.88,-503.08 135.96,-508.77"/>
<text text-anchor="middle" x="134.55" y="-523.8" font-family="Times,serif" font-size="14.00">merge</text>
</g>
<!-- v20191009 -->
<g id="node5" class="node">
<title>v20191009</title>
<ellipse fill="none" stroke="black" cx="80.05" cy="-397" rx="50.09" ry="18"/>
<text text-anchor="middle" x="80.05" y="-393.3" font-family="Times,serif" font-size="14.00">v20191009</text>
</g>
<!-- v20190920&#45;&gt;v20191009 -->
<g id="edge6" class="edge">
<title>v20190920&#45;&gt;v20191009</title>
<path fill="none" stroke="black" stroke-dasharray="5,2" d="M123.81,-474.09C109.29,-468.89 94.36,-460.74 85.05,-448 80.32,-441.54 78.34,-433.28 77.74,-425.35"/>
<polygon fill="black" stroke="black" points="81.24,-425.25 77.64,-415.29 74.24,-425.32 81.24,-425.25"/>
<text text-anchor="middle" x="118.55" y="-436.8" font-family="Times,serif" font-size="14.00">Omon (bgc)</text>
</g>
<!-- v20191108 -->
<g id="node6" class="node">
<title>v20191108</title>
<ellipse fill="none" stroke="black" cx="168.05" cy="-310" rx="50.09" ry="18"/>
<text text-anchor="middle" x="168.05" y="-306.3" font-family="Times,serif" font-size="14.00">v20191108</text>
</g>
<!-- v20190920&#45;&gt;v20191108 -->
<g id="edge7" class="edge">
<title>v20190920&#45;&gt;v20191108</title>
<path fill="none" stroke="black" stroke-width="2" d="M166.24,-465.88C166.59,-436 167.31,-374.11 167.73,-338.27"/>
<polygon fill="black" stroke="black" stroke-width="2" points="171.23,-338.09 167.85,-328.05 164.23,-338.01 171.23,-338.09"/>
<text text-anchor="middle" x="182.55" y="-393.3" font-family="Times,serif" font-size="14.00">trunk</text>
</g>
<!-- v20191022 -->
<g id="node7" class="node">
<title>v20191022</title>
<ellipse fill="none" stroke="black" cx="263.05" cy="-397" rx="50.09" ry="18"/>
<text text-anchor="middle" x="263.05" y="-393.3" font-family="Times,serif" font-size="14.00">v20191022</text>
</g>
<!-- v20190920&#45;&gt;v20191022 -->
<g id="edge8" class="edge">
<title>v20190920&#45;&gt;v20191022</title>
<path fill="none" stroke="black" stroke-dasharray="5,2" d="M184.29,-467.01C199.19,-453.95 220.44,-435.33 237.11,-420.72"/>
<polygon fill="black" stroke="black" points="239.67,-423.14 244.88,-413.92 235.05,-417.87 239.67,-423.14"/>
<text text-anchor="middle" x="253.55" y="-436.8" font-family="Times,serif" font-size="14.00">Omon (bgc)</text>
</g>
<!-- v20190909&#45;&gt;v20190920 -->
<g id="edge5" class="edge">
<title>v20190909&#45;&gt;v20190920</title>
<path fill="none" stroke="black" stroke-dasharray="5,2" d="M244.8,-554.01C229.9,-540.95 208.65,-522.33 191.98,-507.72"/>
<polygon fill="black" stroke="black" points="194.04,-504.87 184.21,-500.92 189.42,-510.14 194.04,-504.87"/>
<text text-anchor="middle" x="237.55" y="-523.8" font-family="Times,serif" font-size="14.00">merge</text>
</g>
<!-- v20191009&#45;&gt;v20191108 -->
<g id="edge10" class="edge">
<title>v20191009&#45;&gt;v20191108</title>
<path fill="none" stroke="black" stroke-dasharray="5,2" d="M90.46,-379.14C97.27,-368.88 106.79,-355.9 117.05,-346 122.41,-340.82 128.62,-335.88 134.82,-331.42"/>
<polygon fill="black" stroke="black" points="136.92,-334.22 143.18,-325.67 132.96,-328.45 136.92,-334.22"/>
<text text-anchor="middle" x="134.55" y="-349.8" font-family="Times,serif" font-size="14.00">merge</text>
</g>
<!-- v20191018 -->
<g id="node8" class="node">
<title>v20191018</title>
<ellipse fill="none" stroke="black" cx="50.05" cy="-310" rx="50.09" ry="18"/>
<text text-anchor="middle" x="50.05" y="-306.3" font-family="Times,serif" font-size="14.00">v20191018</text>
</g>
<!-- v20191009&#45;&gt;v20191018 -->
<g id="edge9" class="edge">
<title>v20191009&#45;&gt;v20191018</title>
<path fill="none" stroke="black" stroke-dasharray="5,2" d="M64.99,-379.69C60.72,-374.15 56.55,-367.66 54.05,-361 51.38,-353.91 50.07,-345.86 49.49,-338.33"/>
<polygon fill="black" stroke="black" points="52.98,-338.03 49.11,-328.17 45.99,-338.3 52.98,-338.03"/>
<text text-anchor="middle" x="73.55" y="-349.8" font-family="Times,serif" font-size="14.00">bug fix</text>
</g>
<!-- v20200206 -->
<g id="node9" class="node">
<title>v20200206</title>
<ellipse fill="none" stroke="black" cx="90.05" cy="-237" rx="50.09" ry="18"/>
<text text-anchor="middle" x="90.05" y="-233.3" font-family="Times,serif" font-size="14.00">v20200206</text>
</g>
<!-- v20191108&#45;&gt;v20200206 -->
<g id="edge12" class="edge">
<title>v20191108&#45;&gt;v20200206</title>
<path fill="none" stroke="black" stroke-dasharray="5,2" d="M150.35,-292.89C139.97,-283.45 126.7,-271.37 115.25,-260.95"/>
<polygon fill="black" stroke="black" points="117.43,-258.19 107.67,-254.05 112.71,-263.37 117.43,-258.19"/>
</g>
<!-- v20200218 -->
<g id="node10" class="node">
<title>v20200218</title>
<ellipse fill="none" stroke="black" cx="168.05" cy="-164" rx="50.09" ry="18"/>
<text text-anchor="middle" x="168.05" y="-160.3" font-family="Times,serif" font-size="14.00">v20200218</text>
</g>
<!-- v20191108&#45;&gt;v20200218 -->
<g id="edge14" class="edge">
<title>v20191108&#45;&gt;v20200218</title>
<path fill="none" stroke="black" stroke-width="2" d="M168.05,-291.92C168.05,-267.34 168.05,-221.75 168.05,-192.43"/>
<polygon fill="black" stroke="black" stroke-width="2" points="171.55,-192.06 168.05,-182.06 164.55,-192.06 171.55,-192.06"/>
</g>
<!-- v20200217 -->
<g id="node11" class="node">
<title>v20200217</title>
<ellipse fill="none" stroke="black" cx="246.05" cy="-237" rx="50.09" ry="18"/>
<text text-anchor="middle" x="246.05" y="-233.3" font-family="Times,serif" font-size="14.00">v20200217</text>
</g>
<!-- v20191108&#45;&gt;v20200217 -->
<g id="edge15" class="edge">
<title>v20191108&#45;&gt;v20200217</title>
<path fill="none" stroke="black" stroke-dasharray="5,2" d="M185.74,-292.89C196.12,-283.45 209.39,-271.37 220.84,-260.95"/>
<polygon fill="black" stroke="black" points="223.38,-263.37 228.42,-254.05 218.67,-258.19 223.38,-263.37"/>
</g>
<!-- v20191022&#45;&gt;v20191108 -->
<g id="edge11" class="edge">
<title>v20191022&#45;&gt;v20191108</title>
<path fill="none" stroke="black" stroke-dasharray="5,2" d="M245.18,-380.01C230.58,-366.95 209.77,-348.33 193.44,-333.72"/>
<polygon fill="black" stroke="black" points="195.62,-330.98 185.83,-326.92 190.95,-336.19 195.62,-330.98"/>
<text text-anchor="middle" x="238.55" y="-349.8" font-family="Times,serif" font-size="14.00">merge</text>
</g>
<!-- v20200206&#45;&gt;v20200218 -->
<g id="edge13" class="edge">
<title>v20200206&#45;&gt;v20200218</title>
<path fill="none" stroke="black" stroke-dasharray="5,2" d="M107.74,-219.89C118.12,-210.45 131.39,-198.37 142.84,-187.95"/>
<polygon fill="black" stroke="black" points="145.38,-190.37 150.42,-181.05 140.67,-185.19 145.38,-190.37"/>
</g>
<!-- v20200702 -->
<g id="node12" class="node">
<title>v20200702</title>
<ellipse fill="none" stroke="black" cx="168.05" cy="-91" rx="50.09" ry="18"/>
<text text-anchor="middle" x="168.05" y="-87.3" font-family="Times,serif" font-size="14.00">v20200702</text>
</g>
<!-- v20200218&#45;&gt;v20200702 -->
<g id="edge17" class="edge">
<title>v20200218&#45;&gt;v20200702</title>
<path fill="none" stroke="black" stroke-width="2" d="M168.05,-145.81C168.05,-137.79 168.05,-128.05 168.05,-119.07"/>
<polygon fill="black" stroke="black" stroke-width="2" points="171.55,-119.03 168.05,-109.03 164.55,-119.03 171.55,-119.03"/>
</g>
<!-- v20200217&#45;&gt;v20200218 -->
<g id="edge16" class="edge">
<title>v20200217&#45;&gt;v20200218</title>
<path fill="none" stroke="black" stroke-dasharray="5,2" d="M228.35,-219.89C217.97,-210.45 204.7,-198.37 193.25,-187.95"/>
<polygon fill="black" stroke="black" points="195.43,-185.19 185.67,-181.05 190.71,-190.37 195.43,-185.19"/>
</g>
<!-- v20201001 -->
<g id="node13" class="node">
<title>v20201001</title>
<ellipse fill="none" stroke="black" cx="168.05" cy="-18" rx="50.09" ry="18"/>
<text text-anchor="middle" x="168.05" y="-14.3" font-family="Times,serif" font-size="14.00">v20201001</text>
</g>
<!-- v20200702&#45;&gt;v20201001 -->
<g id="edge18" class="edge">
<title>v20200702&#45;&gt;v20201001</title>
<path fill="none" stroke="black" stroke-width="2" d="M168.05,-72.81C168.05,-64.79 168.05,-55.05 168.05,-46.07"/>
<polygon fill="black" stroke="black" stroke-width="2" points="171.55,-46.03 168.05,-36.03 164.55,-46.03 171.55,-46.03"/>
</g>
</g>
</svg>
