<?xml version="1.0" encoding="UTF-8" standalone="no"?>
<!DOCTYPE svg PUBLIC "-//W3C//DTD SVG 1.1//EN"
 "http://www.w3.org/Graphics/SVG/1.1/DTD/svg11.dtd">
<!-- Generated by graphviz version 2.44.1 (20200629.0846)
 -->
<!-- Title: G Pages: 1 -->
<svg width="473pt" height="1293pt"
 viewBox="0.00 0.00 472.60 1293.00" xmlns="http://www.w3.org/2000/svg" xmlns:xlink="http://www.w3.org/1999/xlink">
<g id="graph0" class="graph" transform="scale(1 1) rotate(0) translate(4 1289)">
<title>G</title>
<polygon fill="white" stroke="transparent" points="-4,4 -4,-1289 468.6,-1289 468.6,4 -4,4"/>
<!-- v20190815 -->
<g id="node1" class="node">
<title>v20190815</title>
<polygon fill="none" stroke="black" points="220.6,-1285 136.6,-1285 136.6,-1249 220.6,-1249 220.6,-1285"/>
<text text-anchor="middle" x="178.6" y="-1263.3" font-family="Times,serif" font-size="14.00">v20190815</text>
</g>
<!-- v20190817 -->
<g id="node3" class="node">
<title>v20190817</title>
<ellipse fill="none" stroke="black" cx="86.6" cy="-1180" rx="54.69" ry="18"/>
<text text-anchor="middle" x="86.6" y="-1176.3" font-family="Times,serif" font-size="14.00">v20190817</text>
</g>
<!-- v20190815&#45;&gt;v20190817 -->
<g id="edge1" class="edge">
<title>v20190815&#45;&gt;v20190817</title>
<path fill="none" stroke="black" stroke-dasharray="5,2" d="M136.28,-1260.93C117.49,-1256.33 97.08,-1247.6 85.6,-1231 81.06,-1224.45 79.91,-1216.17 80.29,-1208.24"/>
<polygon fill="black" stroke="black" points="83.78,-1208.55 81.53,-1198.2 76.83,-1207.69 83.78,-1208.55"/>
<text text-anchor="middle" x="125.1" y="-1219.8" font-family="Times,serif" font-size="14.00">Lmon,LImon</text>
</g>
<!-- v20190920 -->
<g id="node4" class="node">
<title>v20190920</title>
<ellipse fill="none" stroke="black" cx="178.6" cy="-1093" rx="54.69" ry="18"/>
<text text-anchor="middle" x="178.6" y="-1089.3" font-family="Times,serif" font-size="14.00">v20190920</text>
</g>
<!-- v20190815&#45;&gt;v20190920 -->
<g id="edge2" class="edge">
<title>v20190815&#45;&gt;v20190920</title>
<path fill="none" stroke="black" stroke-width="2" d="M178.6,-1248.88C178.6,-1219 178.6,-1157.11 178.6,-1121.27"/>
<polygon fill="black" stroke="black" stroke-width="2" points="182.1,-1121.05 178.6,-1111.05 175.1,-1121.05 182.1,-1121.05"/>
<text text-anchor="middle" x="194.1" y="-1176.3" font-family="Times,serif" font-size="14.00">trunk</text>
</g>
<!-- v20190909 -->
<g id="node5" class="node">
<title>v20190909</title>
<ellipse fill="none" stroke="black" cx="282.6" cy="-1180" rx="54.69" ry="18"/>
<text text-anchor="middle" x="282.6" y="-1176.3" font-family="Times,serif" font-size="14.00">v20190909</text>
</g>
<!-- v20190815&#45;&gt;v20190909 -->
<g id="edge3" class="edge">
<title>v20190815&#45;&gt;v20190909</title>
<path fill="none" stroke="black" stroke-dasharray="5,2" d="M199.64,-1248.8C215.56,-1235.79 237.55,-1217.81 254.89,-1203.64"/>
<polygon fill="black" stroke="black" points="257.46,-1206.06 262.99,-1197.03 253.03,-1200.64 257.46,-1206.06"/>
<text text-anchor="middle" x="254.6" y="-1219.8" font-family="Times,serif" font-size="14.00">Emon</text>
</g>
<!-- next release -->
<g id="node2" class="node">
<title>next release</title>
<polygon fill="none" stroke="gray" points="239.88,-10.54 239.88,-25.46 205.74,-36 157.45,-36 123.32,-25.46 123.32,-10.54 157.45,0 205.74,0 239.88,-10.54"/>
<text text-anchor="middle" x="181.6" y="-14.3" font-family="Times,serif" font-size="14.00">next release</text>
</g>
<!-- v20190817&#45;&gt;v20190920 -->
<g id="edge4" class="edge">
<title>v20190817&#45;&gt;v20190920</title>
<path fill="none" stroke="black" stroke-dasharray="5,2" d="M98.84,-1162.28C106.74,-1152.08 117.56,-1139.11 128.6,-1129 133.85,-1124.19 139.78,-1119.5 145.69,-1115.19"/>
<polygon fill="black" stroke="black" points="148.06,-1117.8 154.23,-1109.18 144.04,-1112.07 148.06,-1117.8"/>
<text text-anchor="middle" x="146.6" y="-1132.8" font-family="Times,serif" font-size="14.00">merge</text>
</g>
<!-- v20191009 -->
<g id="node6" class="node">
<title>v20191009</title>
<ellipse fill="none" stroke="black" cx="87.6" cy="-1006" rx="54.69" ry="18"/>
<text text-anchor="middle" x="87.6" y="-1002.3" font-family="Times,serif" font-size="14.00">v20191009</text>
</g>
<!-- v20190920&#45;&gt;v20191009 -->
<g id="edge6" class="edge">
<title>v20190920&#45;&gt;v20191009</title>
<path fill="none" stroke="black" stroke-dasharray="5,2" d="M133.13,-1083C118.33,-1077.83 103.25,-1069.71 93.6,-1057 88.74,-1050.61 86.6,-1042.38 85.84,-1034.44"/>
<polygon fill="black" stroke="black" points="89.34,-1034.25 85.54,-1024.36 82.34,-1034.46 89.34,-1034.25"/>
<text text-anchor="middle" x="129.1" y="-1045.8" font-family="Times,serif" font-size="14.00">Omon (bgc)</text>
</g>
<!-- v20191108 -->
<g id="node7" class="node">
<title>v20191108</title>
<ellipse fill="none" stroke="black" cx="181.6" cy="-919" rx="54.69" ry="18"/>
<text text-anchor="middle" x="181.6" y="-915.3" font-family="Times,serif" font-size="14.00">v20191108</text>
</g>
<!-- v20190920&#45;&gt;v20191108 -->
<g id="edge7" class="edge">
<title>v20190920&#45;&gt;v20191108</title>
<path fill="none" stroke="black" stroke-width="2" d="M178.89,-1074.88C179.41,-1045 180.49,-983.11 181.12,-947.27"/>
<polygon fill="black" stroke="black" stroke-width="2" points="184.62,-947.11 181.3,-937.05 177.62,-946.99 184.62,-947.11"/>
<text text-anchor="middle" x="196.1" y="-1002.3" font-family="Times,serif" font-size="14.00">trunk</text>
</g>
<!-- v20191022 -->
<g id="node8" class="node">
<title>v20191022</title>
<ellipse fill="none" stroke="black" cx="282.6" cy="-1006" rx="54.69" ry="18"/>
<text text-anchor="middle" x="282.6" y="-1002.3" font-family="Times,serif" font-size="14.00">v20191022</text>
</g>
<!-- v20190920&#45;&gt;v20191022 -->
<g id="edge8" class="edge">
<title>v20190920&#45;&gt;v20191022</title>
<path fill="none" stroke="black" stroke-dasharray="5,2" d="M198.16,-1076.01C214.28,-1062.83 237.33,-1043.99 255.28,-1029.33"/>
<polygon fill="black" stroke="black" points="257.59,-1031.95 263.12,-1022.92 253.16,-1026.53 257.59,-1031.95"/>
<text text-anchor="middle" x="272.1" y="-1045.8" font-family="Times,serif" font-size="14.00">Omon (bgc)</text>
</g>
<!-- v20190909&#45;&gt;v20190920 -->
<g id="edge5" class="edge">
<title>v20190909&#45;&gt;v20190920</title>
<path fill="none" stroke="black" stroke-dasharray="5,2" d="M263.03,-1163.01C246.91,-1149.83 223.86,-1130.99 205.91,-1116.33"/>
<polygon fill="black" stroke="black" points="208.03,-1113.53 198.07,-1109.92 203.6,-1118.95 208.03,-1113.53"/>
<text text-anchor="middle" x="254.6" y="-1132.8" font-family="Times,serif" font-size="14.00">merge</text>
</g>
<!-- v20191009&#45;&gt;v20191108 -->
<g id="edge10" class="edge">
<title>v20191009&#45;&gt;v20191108</title>
<path fill="none" stroke="black" stroke-dasharray="5,2" d="M99.39,-988.16C107.03,-977.91 117.59,-964.92 128.6,-955 134.22,-949.92 140.65,-945.05 147.05,-940.63"/>
<polygon fill="black" stroke="black" points="149.26,-943.37 155.66,-934.92 145.39,-937.53 149.26,-943.37"/>
<text text-anchor="middle" x="146.6" y="-958.8" font-family="Times,serif" font-size="14.00">merge</text>
</g>
<!-- v20191018 -->
<g id="node9" class="node">
<title>v20191018</title>
<ellipse fill="none" stroke="black" cx="54.6" cy="-919" rx="54.69" ry="18"/>
<text text-anchor="middle" x="54.6" y="-915.3" font-family="Times,serif" font-size="14.00">v20191018</text>
</g>
<!-- v20191009&#45;&gt;v20191018 -->
<g id="edge9" class="edge">
<title>v20191009&#45;&gt;v20191018</title>
<path fill="none" stroke="black" stroke-dasharray="5,2" d="M72.12,-988.71C67.69,-983.17 63.33,-976.68 60.6,-970 57.72,-962.96 56.1,-954.93 55.22,-947.4"/>
<polygon fill="black" stroke="black" points="58.7,-946.92 54.42,-937.23 51.72,-947.48 58.7,-946.92"/>
<text text-anchor="middle" x="82.1" y="-958.8" font-family="Times,serif" font-size="14.00">bug fix</text>
</g>
<!-- v20200206 -->
<g id="node10" class="node">
<title>v20200206</title>
<ellipse fill="none" stroke="black" cx="98.6" cy="-846" rx="54.69" ry="18"/>
<text text-anchor="middle" x="98.6" y="-842.3" font-family="Times,serif" font-size="14.00">v20200206</text>
</g>
<!-- v20191108&#45;&gt;v20200206 -->
<g id="edge12" class="edge">
<title>v20191108&#45;&gt;v20200206</title>
<path fill="none" stroke="black" stroke-dasharray="5,2" d="M162.76,-901.89C151.62,-892.36 137.33,-880.14 125.07,-869.65"/>
<polygon fill="black" stroke="black" points="127.23,-866.89 117.35,-863.05 122.68,-872.21 127.23,-866.89"/>
</g>
<!-- v20200218 -->
<g id="node11" class="node">
<title>v20200218</title>
<ellipse fill="none" stroke="black" cx="181.6" cy="-773" rx="54.69" ry="18"/>
<text text-anchor="middle" x="181.6" y="-769.3" font-family="Times,serif" font-size="14.00">v20200218</text>
</g>
<!-- v20191108&#45;&gt;v20200218 -->
<g id="edge14" class="edge">
<title>v20191108&#45;&gt;v20200218</title>
<path fill="none" stroke="black" stroke-width="2" d="M181.6,-900.92C181.6,-876.34 181.6,-830.75 181.6,-801.43"/>
<polygon fill="black" stroke="black" stroke-width="2" points="185.1,-801.06 181.6,-791.06 178.1,-801.06 185.1,-801.06"/>
</g>
<!-- v20200217 -->
<g id="node12" class="node">
<title>v20200217</title>
<ellipse fill="none" stroke="black" cx="264.6" cy="-846" rx="54.69" ry="18"/>
<text text-anchor="middle" x="264.6" y="-842.3" font-family="Times,serif" font-size="14.00">v20200217</text>
</g>
<!-- v20191108&#45;&gt;v20200217 -->
<g id="edge15" class="edge">
<title>v20191108&#45;&gt;v20200217</title>
<path fill="none" stroke="black" stroke-dasharray="5,2" d="M200.43,-901.89C211.57,-892.36 225.86,-880.14 238.12,-869.65"/>
<polygon fill="black" stroke="black" points="240.51,-872.21 245.84,-863.05 235.96,-866.89 240.51,-872.21"/>
</g>
<!-- v20191022&#45;&gt;v20191108 -->
<g id="edge11" class="edge">
<title>v20191022&#45;&gt;v20191108</title>
<path fill="none" stroke="black" stroke-dasharray="5,2" d="M263.6,-989.01C248.08,-975.95 225.95,-957.33 208.6,-942.72"/>
<polygon fill="black" stroke="black" points="210.41,-939.68 200.51,-935.92 205.9,-945.03 210.41,-939.68"/>
<text text-anchor="middle" x="255.6" y="-958.8" font-family="Times,serif" font-size="14.00">merge</text>
</g>
<!-- v20200206&#45;&gt;v20200218 -->
<g id="edge13" class="edge">
<title>v20200206&#45;&gt;v20200218</title>
<path fill="none" stroke="black" stroke-dasharray="5,2" d="M117.43,-828.89C128.57,-819.36 142.86,-807.14 155.12,-796.65"/>
<polygon fill="black" stroke="black" points="157.51,-799.21 162.84,-790.05 152.96,-793.89 157.51,-799.21"/>
</g>
<!-- v20200702 -->
<g id="node13" class="node">
<title>v20200702</title>
<ellipse fill="none" stroke="black" cx="181.6" cy="-700" rx="54.69" ry="18"/>
<text text-anchor="middle" x="181.6" y="-696.3" font-family="Times,serif" font-size="14.00">v20200702</text>
</g>
<!-- v20200218&#45;&gt;v20200702 -->
<g id="edge17" class="edge">
<title>v20200218&#45;&gt;v20200702</title>
<path fill="none" stroke="black" stroke-width="2" d="M181.6,-754.81C181.6,-746.79 181.6,-737.05 181.6,-728.07"/>
<polygon fill="black" stroke="black" stroke-width="2" points="185.1,-728.03 181.6,-718.03 178.1,-728.03 185.1,-728.03"/>
</g>
<!-- v20200217&#45;&gt;v20200218 -->
<g id="edge16" class="edge">
<title>v20200217&#45;&gt;v20200218</title>
<path fill="none" stroke="black" stroke-dasharray="5,2" d="M245.76,-828.89C234.62,-819.36 220.33,-807.14 208.07,-796.65"/>
<polygon fill="black" stroke="black" points="210.23,-793.89 200.35,-790.05 205.68,-799.21 210.23,-793.89"/>
</g>
<!-- v20201001 -->
<g id="node14" class="node">
<title>v20201001</title>
<ellipse fill="none" stroke="black" cx="181.6" cy="-627" rx="54.69" ry="18"/>
<text text-anchor="middle" x="181.6" y="-623.3" font-family="Times,serif" font-size="14.00">v20201001</text>
</g>
<!-- v20200702&#45;&gt;v20201001 -->
<g id="edge18" class="edge">
<title>v20200702&#45;&gt;v20201001</title>
<path fill="none" stroke="black" stroke-width="2" d="M181.6,-681.81C181.6,-673.79 181.6,-664.05 181.6,-655.07"/>
<polygon fill="black" stroke="black" stroke-width="2" points="185.1,-655.03 181.6,-645.03 178.1,-655.03 185.1,-655.03"/>
</g>
<!-- v20210118 -->
<g id="node15" class="node">
<title>v20210118</title>
<ellipse fill="none" stroke="black" cx="90.6" cy="-540" rx="54.69" ry="18"/>
<text text-anchor="middle" x="90.6" y="-536.3" font-family="Times,serif" font-size="14.00">v20210118</text>
</g>
<!-- v20201001&#45;&gt;v20210118 -->
<g id="edge19" class="edge">
<title>v20201001&#45;&gt;v20210118</title>
<path fill="none" stroke="black" stroke-dasharray="5,2" d="M146.14,-613.2C134.66,-607.73 122.59,-600.4 113.6,-591 107.23,-584.35 102.4,-575.63 98.85,-567.33"/>
<polygon fill="black" stroke="black" points="102.1,-566.03 95.26,-557.94 95.56,-568.53 102.1,-566.03"/>
<text text-anchor="middle" x="140.6" y="-579.8" font-family="Times,serif" font-size="14.00">republish</text>
</g>
<!-- v20210218 -->
<g id="node16" class="node">
<title>v20210218</title>
<ellipse fill="none" stroke="black" cx="181.6" cy="-453" rx="54.69" ry="18"/>
<text text-anchor="middle" x="181.6" y="-449.3" font-family="Times,serif" font-size="14.00">v20210218</text>
</g>
<!-- v20201001&#45;&gt;v20210218 -->
<g id="edge21" class="edge">
<title>v20201001&#45;&gt;v20210218</title>
<path fill="none" stroke="black" stroke-width="2" d="M181.6,-608.88C181.6,-579 181.6,-517.11 181.6,-481.27"/>
<polygon fill="black" stroke="black" stroke-width="2" points="185.1,-481.05 181.6,-471.05 178.1,-481.05 185.1,-481.05"/>
<text text-anchor="middle" x="197.1" y="-536.3" font-family="Times,serif" font-size="14.00">trunk</text>
</g>
<!-- v20210203 -->
<g id="node17" class="node">
<title>v20210203</title>
<ellipse fill="none" stroke="black" cx="285.6" cy="-540" rx="54.69" ry="18"/>
<text text-anchor="middle" x="285.6" y="-536.3" font-family="Times,serif" font-size="14.00">v20210203</text>
</g>
<!-- v20201001&#45;&gt;v20210203 -->
<g id="edge22" class="edge">
<title>v20201001&#45;&gt;v20210203</title>
<path fill="none" stroke="black" stroke-dasharray="5,2" d="M201.16,-610.01C217.28,-596.83 240.33,-577.99 258.28,-563.33"/>
<polygon fill="black" stroke="black" points="260.59,-565.95 266.12,-556.92 256.16,-560.53 260.59,-565.95"/>
<text text-anchor="middle" x="352.1" y="-579.8" font-family="Times,serif" font-size="14.00">iLAMB and zg500 (#262,#263, #251)</text>
</g>
<!-- v20210118&#45;&gt;v20210218 -->
<g id="edge20" class="edge">
<title>v20210118&#45;&gt;v20210218</title>
<path fill="none" stroke="black" stroke-dasharray="5,2" d="M108.14,-522.61C124.25,-507.56 148.01,-485.37 164.1,-470.34"/>
</g>
<!-- v20210319 -->
<g id="node18" class="node">
<title>v20210319</title>
<ellipse fill="none" stroke="black" cx="181.6" cy="-366" rx="54.69" ry="18"/>
<text text-anchor="middle" x="181.6" y="-362.3" font-family="Times,serif" font-size="14.00">v20210319</text>
</g>
<!-- v20210218&#45;&gt;v20210319 -->
<g id="edge24" class="edge">
<title>v20210218&#45;&gt;v20210319</title>
<path fill="none" stroke="black" stroke-width="2" d="M181.6,-434.8C181.6,-423.16 181.6,-407.55 181.6,-394.24"/>
<polygon fill="black" stroke="black" stroke-width="2" points="185.1,-394.18 181.6,-384.18 178.1,-394.18 185.1,-394.18"/>
<text text-anchor="middle" x="274.1" y="-405.8" font-family="Times,serif" font-size="14.00">fix #269 #270 #271 #272 #273</text>
</g>
<!-- v20210203&#45;&gt;v20210218 -->
<g id="edge23" class="edge">
<title>v20210203&#45;&gt;v20210218</title>
<path fill="none" stroke="black" stroke-dasharray="5,2" d="M266.03,-523.01C249.91,-509.83 226.86,-490.99 208.91,-476.33"/>
<polygon fill="black" stroke="black" points="211.03,-473.53 201.07,-469.92 206.6,-478.95 211.03,-473.53"/>
<text text-anchor="middle" x="257.6" y="-492.8" font-family="Times,serif" font-size="14.00">merge</text>
</g>
<!-- v20210521 -->
<g id="node19" class="node">
<title>v20210521</title>
<ellipse fill="none" stroke="black" cx="181.6" cy="-279" rx="54.69" ry="18"/>
<text text-anchor="middle" x="181.6" y="-275.3" font-family="Times,serif" font-size="14.00">v20210521</text>
</g>
<!-- v20210319&#45;&gt;v20210521 -->
<g id="edge25" class="edge">
<title>v20210319&#45;&gt;v20210521</title>
<path fill="none" stroke="black" stroke-width="2" stroke-dasharray="5,2" d="M181.6,-347.8C181.6,-336.16 181.6,-320.55 181.6,-307.24"/>
<polygon fill="black" stroke="black" stroke-width="2" points="185.1,-307.18 181.6,-297.18 178.1,-307.18 185.1,-307.18"/>
<text text-anchor="middle" x="206.6" y="-318.8" font-family="Times,serif" font-size="14.00">fix #280</text>
</g>
<!-- v20210811 -->
<g id="node20" class="node">
<title>v20210811</title>
<ellipse fill="none" stroke="black" cx="181.6" cy="-192" rx="54.69" ry="18"/>
<text text-anchor="middle" x="181.6" y="-188.3" font-family="Times,serif" font-size="14.00">v20210811</text>
</g>
<!-- v20210521&#45;&gt;v20210811 -->
<g id="edge26" class="edge">
<title>v20210521&#45;&gt;v20210811</title>
<path fill="none" stroke="black" stroke-width="2" stroke-dasharray="5,2" d="M181.6,-260.8C181.6,-249.16 181.6,-233.55 181.6,-220.24"/>
<polygon fill="black" stroke="black" stroke-width="2" points="185.1,-220.18 181.6,-210.18 178.1,-220.18 185.1,-220.18"/>
<text text-anchor="middle" x="240.6" y="-231.8" font-family="Times,serif" font-size="14.00">fix #281,#282,#299</text>
</g>
<!-- v20210818 -->
<g id="node21" class="node">
<title>v20210818</title>
<ellipse fill="none" stroke="black" cx="181.6" cy="-105" rx="54.69" ry="18"/>
<text text-anchor="middle" x="181.6" y="-101.3" font-family="Times,serif" font-size="14.00">v20210818</text>
</g>
<!-- v20210811&#45;&gt;v20210818 -->
<g id="edge27" class="edge">
<title>v20210811&#45;&gt;v20210818</title>
<path fill="none" stroke="black" stroke-width="2" stroke-dasharray="5,2" d="M181.6,-173.8C181.6,-162.16 181.6,-146.55 181.6,-133.24"/>
<polygon fill="black" stroke="black" stroke-width="2" points="185.1,-133.18 181.6,-123.18 178.1,-133.18 185.1,-133.18"/>
<text text-anchor="middle" x="206.6" y="-144.8" font-family="Times,serif" font-size="14.00">fix #286</text>
</g>
<!-- v20210818&#45;&gt;next release -->
<g id="edge28" class="edge">
<title>v20210818&#45;&gt;next release</title>
<path fill="none" stroke="black" stroke-width="2" stroke-dasharray="5,2" d="M181.6,-86.8C181.6,-75.16 181.6,-59.55 181.6,-46.24"/>
<polygon fill="black" stroke="black" stroke-width="2" points="185.1,-46.18 181.6,-36.18 178.1,-46.18 185.1,-46.18"/>
<text text-anchor="middle" x="197.1" y="-57.8" font-family="Times,serif" font-size="14.00">trunk</text>
</g>
</g>
</svg>
