<?xml version="1.0" encoding="UTF-8" standalone="no"?>
<!DOCTYPE svg PUBLIC "-//W3C//DTD SVG 1.1//EN"
 "http://www.w3.org/Graphics/SVG/1.1/DTD/svg11.dtd">
<!-- Generated by graphviz version 2.44.1 (20200629.0846)
 -->
<!-- Title: G Pages: 1 -->
<svg width="375pt" height="1032pt"
 viewBox="0.00 0.00 374.60 1032.00" xmlns="http://www.w3.org/2000/svg" xmlns:xlink="http://www.w3.org/1999/xlink">
<g id="graph0" class="graph" transform="scale(1 1) rotate(0) translate(4 1028)">
<title>G</title>
<polygon fill="white" stroke="transparent" points="-4,4 -4,-1028 370.6,-1028 370.6,4 -4,4"/>
<!-- v20190815 -->
<g id="node1" class="node">
<title>v20190815</title>
<polygon fill="none" stroke="black" points="220.6,-1024 136.6,-1024 136.6,-988 220.6,-988 220.6,-1024"/>
<text text-anchor="middle" x="178.6" y="-1002.3" font-family="Times,serif" font-size="14.00">v20190815</text>
</g>
<!-- v20190817 -->
<g id="node2" class="node">
<title>v20190817</title>
<ellipse fill="none" stroke="black" cx="86.6" cy="-919" rx="54.69" ry="18"/>
<text text-anchor="middle" x="86.6" y="-915.3" font-family="Times,serif" font-size="14.00">v20190817</text>
</g>
<!-- v20190815&#45;&gt;v20190817 -->
<g id="edge1" class="edge">
<title>v20190815&#45;&gt;v20190817</title>
<path fill="none" stroke="black" stroke-dasharray="5,2" d="M136.28,-999.93C117.49,-995.33 97.08,-986.6 85.6,-970 81.06,-963.45 79.91,-955.17 80.29,-947.24"/>
<polygon fill="black" stroke="black" points="83.78,-947.55 81.53,-937.2 76.83,-946.69 83.78,-947.55"/>
<text text-anchor="middle" x="125.1" y="-958.8" font-family="Times,serif" font-size="14.00">Lmon,LImon</text>
</g>
<!-- v20190920 -->
<g id="node3" class="node">
<title>v20190920</title>
<ellipse fill="none" stroke="black" cx="178.6" cy="-832" rx="54.69" ry="18"/>
<text text-anchor="middle" x="178.6" y="-828.3" font-family="Times,serif" font-size="14.00">v20190920</text>
</g>
<!-- v20190815&#45;&gt;v20190920 -->
<g id="edge2" class="edge">
<title>v20190815&#45;&gt;v20190920</title>
<path fill="none" stroke="black" stroke-width="2" d="M178.6,-987.88C178.6,-958 178.6,-896.11 178.6,-860.27"/>
<polygon fill="black" stroke="black" stroke-width="2" points="182.1,-860.05 178.6,-850.05 175.1,-860.05 182.1,-860.05"/>
<text text-anchor="middle" x="194.1" y="-915.3" font-family="Times,serif" font-size="14.00">trunk</text>
</g>
<!-- v20190909 -->
<g id="node4" class="node">
<title>v20190909</title>
<ellipse fill="none" stroke="black" cx="282.6" cy="-919" rx="54.69" ry="18"/>
<text text-anchor="middle" x="282.6" y="-915.3" font-family="Times,serif" font-size="14.00">v20190909</text>
</g>
<!-- v20190815&#45;&gt;v20190909 -->
<g id="edge3" class="edge">
<title>v20190815&#45;&gt;v20190909</title>
<path fill="none" stroke="black" stroke-dasharray="5,2" d="M199.64,-987.8C215.56,-974.79 237.55,-956.81 254.89,-942.64"/>
<polygon fill="black" stroke="black" points="257.46,-945.06 262.99,-936.03 253.03,-939.64 257.46,-945.06"/>
<text text-anchor="middle" x="254.6" y="-958.8" font-family="Times,serif" font-size="14.00">Emon</text>
</g>
<!-- v20190817&#45;&gt;v20190920 -->
<g id="edge4" class="edge">
<title>v20190817&#45;&gt;v20190920</title>
<path fill="none" stroke="black" stroke-dasharray="5,2" d="M98.84,-901.28C106.74,-891.08 117.56,-878.11 128.6,-868 133.85,-863.19 139.78,-858.5 145.69,-854.19"/>
<polygon fill="black" stroke="black" points="148.06,-856.8 154.23,-848.18 144.04,-851.07 148.06,-856.8"/>
<text text-anchor="middle" x="146.6" y="-871.8" font-family="Times,serif" font-size="14.00">merge</text>
</g>
<!-- v20191009 -->
<g id="node5" class="node">
<title>v20191009</title>
<ellipse fill="none" stroke="black" cx="87.6" cy="-745" rx="54.69" ry="18"/>
<text text-anchor="middle" x="87.6" y="-741.3" font-family="Times,serif" font-size="14.00">v20191009</text>
</g>
<!-- v20190920&#45;&gt;v20191009 -->
<g id="edge6" class="edge">
<title>v20190920&#45;&gt;v20191009</title>
<path fill="none" stroke="black" stroke-dasharray="5,2" d="M133.13,-822C118.33,-816.83 103.25,-808.71 93.6,-796 88.74,-789.61 86.6,-781.38 85.84,-773.44"/>
<polygon fill="black" stroke="black" points="89.34,-773.25 85.54,-763.36 82.34,-773.46 89.34,-773.25"/>
<text text-anchor="middle" x="129.1" y="-784.8" font-family="Times,serif" font-size="14.00">Omon (bgc)</text>
</g>
<!-- v20191108 -->
<g id="node6" class="node">
<title>v20191108</title>
<ellipse fill="none" stroke="black" cx="181.6" cy="-658" rx="54.69" ry="18"/>
<text text-anchor="middle" x="181.6" y="-654.3" font-family="Times,serif" font-size="14.00">v20191108</text>
</g>
<!-- v20190920&#45;&gt;v20191108 -->
<g id="edge7" class="edge">
<title>v20190920&#45;&gt;v20191108</title>
<path fill="none" stroke="black" stroke-width="2" d="M178.89,-813.88C179.41,-784 180.49,-722.11 181.12,-686.27"/>
<polygon fill="black" stroke="black" stroke-width="2" points="184.62,-686.11 181.3,-676.05 177.62,-685.99 184.62,-686.11"/>
<text text-anchor="middle" x="196.1" y="-741.3" font-family="Times,serif" font-size="14.00">trunk</text>
</g>
<!-- v20191022 -->
<g id="node7" class="node">
<title>v20191022</title>
<ellipse fill="none" stroke="black" cx="282.6" cy="-745" rx="54.69" ry="18"/>
<text text-anchor="middle" x="282.6" y="-741.3" font-family="Times,serif" font-size="14.00">v20191022</text>
</g>
<!-- v20190920&#45;&gt;v20191022 -->
<g id="edge8" class="edge">
<title>v20190920&#45;&gt;v20191022</title>
<path fill="none" stroke="black" stroke-dasharray="5,2" d="M198.16,-815.01C214.28,-801.83 237.33,-782.99 255.28,-768.33"/>
<polygon fill="black" stroke="black" points="257.59,-770.95 263.12,-761.92 253.16,-765.53 257.59,-770.95"/>
<text text-anchor="middle" x="272.1" y="-784.8" font-family="Times,serif" font-size="14.00">Omon (bgc)</text>
</g>
<!-- v20190909&#45;&gt;v20190920 -->
<g id="edge5" class="edge">
<title>v20190909&#45;&gt;v20190920</title>
<path fill="none" stroke="black" stroke-dasharray="5,2" d="M263.03,-902.01C246.91,-888.83 223.86,-869.99 205.91,-855.33"/>
<polygon fill="black" stroke="black" points="208.03,-852.53 198.07,-848.92 203.6,-857.95 208.03,-852.53"/>
<text text-anchor="middle" x="254.6" y="-871.8" font-family="Times,serif" font-size="14.00">merge</text>
</g>
<!-- v20191009&#45;&gt;v20191108 -->
<g id="edge10" class="edge">
<title>v20191009&#45;&gt;v20191108</title>
<path fill="none" stroke="black" stroke-dasharray="5,2" d="M99.39,-727.16C107.03,-716.91 117.59,-703.92 128.6,-694 134.22,-688.92 140.65,-684.05 147.05,-679.63"/>
<polygon fill="black" stroke="black" points="149.26,-682.37 155.66,-673.92 145.39,-676.53 149.26,-682.37"/>
<text text-anchor="middle" x="146.6" y="-697.8" font-family="Times,serif" font-size="14.00">merge</text>
</g>
<!-- v20191018 -->
<g id="node8" class="node">
<title>v20191018</title>
<ellipse fill="none" stroke="black" cx="54.6" cy="-658" rx="54.69" ry="18"/>
<text text-anchor="middle" x="54.6" y="-654.3" font-family="Times,serif" font-size="14.00">v20191018</text>
</g>
<!-- v20191009&#45;&gt;v20191018 -->
<g id="edge9" class="edge">
<title>v20191009&#45;&gt;v20191018</title>
<path fill="none" stroke="black" stroke-dasharray="5,2" d="M72.12,-727.71C67.69,-722.17 63.33,-715.68 60.6,-709 57.72,-701.96 56.1,-693.93 55.22,-686.4"/>
<polygon fill="black" stroke="black" points="58.7,-685.92 54.42,-676.23 51.72,-686.48 58.7,-685.92"/>
<text text-anchor="middle" x="82.1" y="-697.8" font-family="Times,serif" font-size="14.00">bug fix</text>
</g>
<!-- v20200206 -->
<g id="node9" class="node">
<title>v20200206</title>
<ellipse fill="none" stroke="black" cx="98.6" cy="-585" rx="54.69" ry="18"/>
<text text-anchor="middle" x="98.6" y="-581.3" font-family="Times,serif" font-size="14.00">v20200206</text>
</g>
<!-- v20191108&#45;&gt;v20200206 -->
<g id="edge12" class="edge">
<title>v20191108&#45;&gt;v20200206</title>
<path fill="none" stroke="black" stroke-dasharray="5,2" d="M162.76,-640.89C151.62,-631.36 137.33,-619.14 125.07,-608.65"/>
<polygon fill="black" stroke="black" points="127.23,-605.89 117.35,-602.05 122.68,-611.21 127.23,-605.89"/>
</g>
<!-- v20200218 -->
<g id="node10" class="node">
<title>v20200218</title>
<ellipse fill="none" stroke="black" cx="181.6" cy="-512" rx="54.69" ry="18"/>
<text text-anchor="middle" x="181.6" y="-508.3" font-family="Times,serif" font-size="14.00">v20200218</text>
</g>
<!-- v20191108&#45;&gt;v20200218 -->
<g id="edge14" class="edge">
<title>v20191108&#45;&gt;v20200218</title>
<path fill="none" stroke="black" stroke-width="2" d="M181.6,-639.92C181.6,-615.34 181.6,-569.75 181.6,-540.43"/>
<polygon fill="black" stroke="black" stroke-width="2" points="185.1,-540.06 181.6,-530.06 178.1,-540.06 185.1,-540.06"/>
</g>
<!-- v20200217 -->
<g id="node11" class="node">
<title>v20200217</title>
<ellipse fill="none" stroke="black" cx="264.6" cy="-585" rx="54.69" ry="18"/>
<text text-anchor="middle" x="264.6" y="-581.3" font-family="Times,serif" font-size="14.00">v20200217</text>
</g>
<!-- v20191108&#45;&gt;v20200217 -->
<g id="edge15" class="edge">
<title>v20191108&#45;&gt;v20200217</title>
<path fill="none" stroke="black" stroke-dasharray="5,2" d="M200.43,-640.89C211.57,-631.36 225.86,-619.14 238.12,-608.65"/>
<polygon fill="black" stroke="black" points="240.51,-611.21 245.84,-602.05 235.96,-605.89 240.51,-611.21"/>
</g>
<!-- v20191022&#45;&gt;v20191108 -->
<g id="edge11" class="edge">
<title>v20191022&#45;&gt;v20191108</title>
<path fill="none" stroke="black" stroke-dasharray="5,2" d="M263.6,-728.01C248.08,-714.95 225.95,-696.33 208.6,-681.72"/>
<polygon fill="black" stroke="black" points="210.41,-678.68 200.51,-674.92 205.9,-684.03 210.41,-678.68"/>
<text text-anchor="middle" x="255.6" y="-697.8" font-family="Times,serif" font-size="14.00">merge</text>
</g>
<!-- v20200206&#45;&gt;v20200218 -->
<g id="edge13" class="edge">
<title>v20200206&#45;&gt;v20200218</title>
<path fill="none" stroke="black" stroke-dasharray="5,2" d="M117.43,-567.89C128.57,-558.36 142.86,-546.14 155.12,-535.65"/>
<polygon fill="black" stroke="black" points="157.51,-538.21 162.84,-529.05 152.96,-532.89 157.51,-538.21"/>
</g>
<!-- v20200702 -->
<g id="node12" class="node">
<title>v20200702</title>
<ellipse fill="none" stroke="black" cx="181.6" cy="-439" rx="54.69" ry="18"/>
<text text-anchor="middle" x="181.6" y="-435.3" font-family="Times,serif" font-size="14.00">v20200702</text>
</g>
<!-- v20200218&#45;&gt;v20200702 -->
<g id="edge17" class="edge">
<title>v20200218&#45;&gt;v20200702</title>
<path fill="none" stroke="black" stroke-width="2" d="M181.6,-493.81C181.6,-485.79 181.6,-476.05 181.6,-467.07"/>
<polygon fill="black" stroke="black" stroke-width="2" points="185.1,-467.03 181.6,-457.03 178.1,-467.03 185.1,-467.03"/>
</g>
<!-- v20200217&#45;&gt;v20200218 -->
<g id="edge16" class="edge">
<title>v20200217&#45;&gt;v20200218</title>
<path fill="none" stroke="black" stroke-dasharray="5,2" d="M245.76,-567.89C234.62,-558.36 220.33,-546.14 208.07,-535.65"/>
<polygon fill="black" stroke="black" points="210.23,-532.89 200.35,-529.05 205.68,-538.21 210.23,-532.89"/>
</g>
<!-- v20201001 -->
<g id="node13" class="node">
<title>v20201001</title>
<ellipse fill="none" stroke="black" cx="181.6" cy="-366" rx="54.69" ry="18"/>
<text text-anchor="middle" x="181.6" y="-362.3" font-family="Times,serif" font-size="14.00">v20201001</text>
</g>
<!-- v20200702&#45;&gt;v20201001 -->
<g id="edge18" class="edge">
<title>v20200702&#45;&gt;v20201001</title>
<path fill="none" stroke="black" stroke-width="2" d="M181.6,-420.81C181.6,-412.79 181.6,-403.05 181.6,-394.07"/>
<polygon fill="black" stroke="black" stroke-width="2" points="185.1,-394.03 181.6,-384.03 178.1,-394.03 185.1,-394.03"/>
</g>
<!-- v20210118 -->
<g id="node14" class="node">
<title>v20210118</title>
<ellipse fill="none" stroke="black" cx="90.6" cy="-279" rx="54.69" ry="18"/>
<text text-anchor="middle" x="90.6" y="-275.3" font-family="Times,serif" font-size="14.00">v20210118</text>
</g>
<!-- v20201001&#45;&gt;v20210118 -->
<g id="edge19" class="edge">
<title>v20201001&#45;&gt;v20210118</title>
<path fill="none" stroke="black" stroke-dasharray="5,2" d="M146.14,-352.2C134.66,-346.73 122.59,-339.4 113.6,-330 107.23,-323.35 102.4,-314.63 98.85,-306.33"/>
<polygon fill="black" stroke="black" points="102.1,-305.03 95.26,-296.94 95.56,-307.53 102.1,-305.03"/>
<text text-anchor="middle" x="140.6" y="-318.8" font-family="Times,serif" font-size="14.00">republish</text>
</g>
<!-- v20210218 -->
<g id="node15" class="node">
<title>v20210218</title>
<ellipse fill="none" stroke="black" cx="181.6" cy="-192" rx="54.69" ry="18"/>
<text text-anchor="middle" x="181.6" y="-188.3" font-family="Times,serif" font-size="14.00">v20210218</text>
</g>
<!-- v20201001&#45;&gt;v20210218 -->
<g id="edge21" class="edge">
<title>v20201001&#45;&gt;v20210218</title>
<path fill="none" stroke="black" stroke-width="2" d="M181.6,-347.88C181.6,-318 181.6,-256.11 181.6,-220.27"/>
<polygon fill="black" stroke="black" stroke-width="2" points="185.1,-220.05 181.6,-210.05 178.1,-220.05 185.1,-220.05"/>
<text text-anchor="middle" x="197.1" y="-275.3" font-family="Times,serif" font-size="14.00">trunk</text>
</g>
<!-- v20210203 -->
<g id="node16" class="node">
<title>v20210203</title>
<ellipse fill="none" stroke="black" cx="285.6" cy="-279" rx="54.69" ry="18"/>
<text text-anchor="middle" x="285.6" y="-275.3" font-family="Times,serif" font-size="14.00">v20210203</text>
</g>
<!-- v20201001&#45;&gt;v20210203 -->
<g id="edge22" class="edge">
<title>v20201001&#45;&gt;v20210203</title>
<path fill="none" stroke="black" stroke-dasharray="5,2" d="M201.16,-349.01C217.28,-335.83 240.33,-316.99 258.28,-302.33"/>
<polygon fill="black" stroke="black" points="260.59,-304.95 266.12,-295.92 256.16,-299.53 260.59,-304.95"/>
<text text-anchor="middle" x="295.1" y="-318.8" font-family="Times,serif" font-size="14.00">iLAMB and zg500</text>
</g>
<!-- v20210118&#45;&gt;v20210218 -->
<g id="edge20" class="edge">
<title>v20210118&#45;&gt;v20210218</title>
<path fill="none" stroke="black" stroke-dasharray="5,2" d="M108.14,-261.61C124.25,-246.56 148.01,-224.37 164.1,-209.34"/>
</g>
<!-- v20210319 -->
<g id="node17" class="node">
<title>v20210319</title>
<ellipse fill="none" stroke="black" cx="181.6" cy="-105" rx="54.69" ry="18"/>
<text text-anchor="middle" x="181.6" y="-101.3" font-family="Times,serif" font-size="14.00">v20210319</text>
</g>
<!-- v20210218&#45;&gt;v20210319 -->
<g id="edge24" class="edge">
<title>v20210218&#45;&gt;v20210319</title>
<path fill="none" stroke="black" stroke-width="2" d="M181.6,-173.8C181.6,-162.16 181.6,-146.55 181.6,-133.24"/>
<polygon fill="black" stroke="black" stroke-width="2" points="185.1,-133.18 181.6,-123.18 178.1,-133.18 185.1,-133.18"/>
<text text-anchor="middle" x="274.1" y="-144.8" font-family="Times,serif" font-size="14.00">fix #269 #270 #271 #272 #273</text>
</g>
<!-- v20210203&#45;&gt;v20210218 -->
<g id="edge23" class="edge">
<title>v20210203&#45;&gt;v20210218</title>
<path fill="none" stroke="black" stroke-dasharray="5,2" d="M266.03,-262.01C249.91,-248.83 226.86,-229.99 208.91,-215.33"/>
<polygon fill="black" stroke="black" points="211.03,-212.53 201.07,-208.92 206.6,-217.95 211.03,-212.53"/>
<text text-anchor="middle" x="257.6" y="-231.8" font-family="Times,serif" font-size="14.00">merge</text>
</g>
<!-- next release -->
<g id="node18" class="node">
<title>next release</title>
<polygon fill="none" stroke="gray" points="239.88,-10.54 239.88,-25.46 205.74,-36 157.45,-36 123.32,-25.46 123.32,-10.54 157.45,0 205.74,0 239.88,-10.54"/>
<text text-anchor="middle" x="181.6" y="-14.3" font-family="Times,serif" font-size="14.00">next release</text>
</g>
<!-- v20210319&#45;&gt;next release -->
<g id="edge25" class="edge">
<title>v20210319&#45;&gt;next release</title>
<path fill="none" stroke="black" stroke-width="2" stroke-dasharray="5,2" d="M181.6,-86.8C181.6,-75.16 181.6,-59.55 181.6,-46.24"/>
<polygon fill="black" stroke="black" stroke-width="2" points="185.1,-46.18 181.6,-36.18 178.1,-46.18 185.1,-46.18"/>
<text text-anchor="middle" x="197.1" y="-57.8" font-family="Times,serif" font-size="14.00">trunk</text>
</g>
</g>
</svg>
