<?xml version="1.0" encoding="UTF-8" standalone="no"?>
<!DOCTYPE svg PUBLIC "-//W3C//DTD SVG 1.1//EN"
 "http://www.w3.org/Graphics/SVG/1.1/DTD/svg11.dtd">
<!-- Generated by graphviz version 2.40.1 (20161225.0304)
 -->
<!-- Title: G Pages: 1 -->
<svg width="459pt" height="388pt"
 viewBox="0.00 0.00 458.80 388.00" xmlns="http://www.w3.org/2000/svg" xmlns:xlink="http://www.w3.org/1999/xlink">
<g id="graph0" class="graph" transform="scale(1 1) rotate(0) translate(4 384)">
<title>G</title>
<polygon fill="#ffffff" stroke="transparent" points="-4,4 -4,-384 454.8048,-384 454.8048,4 -4,4"/>
<!-- v20190817 -->
<g id="node1" class="node">
<title>v20190817</title>
<ellipse fill="none" stroke="#000000" cx="49.9024" cy="-276" rx="49.805" ry="18"/>
<text text-anchor="middle" x="49.9024" y="-271.8" font-family="Times,serif" font-size="14.00" fill="#000000">v20190817</text>
</g>
<!-- v20190920 -->
<g id="node4" class="node">
<title>v20190920</title>
<ellipse fill="none" stroke="#000000" cx="137.9024" cy="-190" rx="49.805" ry="18"/>
<text text-anchor="middle" x="137.9024" y="-185.8" font-family="Times,serif" font-size="14.00" fill="#000000">v20190920</text>
</g>
<!-- v20190817&#45;&gt;v20190920 -->
<g id="edge4" class="edge">
<title>v20190817&#45;&gt;v20190920</title>
<path fill="none" stroke="#000000" stroke-dasharray="5,2" d="M61.9336,-258.3812C69.2162,-248.3415 79.0328,-235.8415 89.169,-226 94.1381,-221.1753 99.7749,-216.451 105.4073,-212.0946"/>
<polygon fill="#000000" stroke="#000000" points="107.6505,-214.7879 113.5779,-206.0062 103.4679,-209.1748 107.6505,-214.7879"/>
<text text-anchor="middle" x="107.2691" y="-228.8" font-family="Times,serif" font-size="14.00" fill="#000000">merge</text>
</g>
<!-- future -->
<g id="node2" class="node">
<title>future</title>
<polygon fill="none" stroke="#000000" points="164.9024,-36 110.9024,-36 110.9024,0 164.9024,0 164.9024,-36"/>
<text text-anchor="middle" x="137.9024" y="-13.8" font-family="Times,serif" font-size="14.00" fill="#000000">future</text>
</g>
<!-- v20190815 -->
<g id="node3" class="node">
<title>v20190815</title>
<ellipse fill="none" stroke="#000000" cx="137.9024" cy="-362" rx="49.805" ry="18"/>
<text text-anchor="middle" x="137.9024" y="-357.8" font-family="Times,serif" font-size="14.00" fill="#000000">v20190815</text>
</g>
<!-- v20190815&#45;&gt;v20190817 -->
<g id="edge1" class="edge">
<title>v20190815&#45;&gt;v20190817</title>
<path fill="none" stroke="#000000" stroke-dasharray="5,2" d="M92.1929,-354.4988C75.7048,-349.3455 58.7397,-340.6546 48.8575,-326 44.5857,-319.6652 43.3742,-311.7774 43.6239,-304.1528"/>
<polygon fill="#000000" stroke="#000000" points="47.1165,-304.4095 44.7198,-294.0893 40.1577,-303.6516 47.1165,-304.4095"/>
<text text-anchor="middle" x="86.4249" y="-314.8" font-family="Times,serif" font-size="14.00" fill="#000000">Lmon,LImon</text>
</g>
<!-- v20190815&#45;&gt;v20190920 -->
<g id="edge2" class="edge">
<title>v20190815&#45;&gt;v20190920</title>
<path fill="none" stroke="#000000" stroke-width="2" d="M137.9024,-343.9181C137.9024,-313.981 137.9024,-253.8972 137.9024,-218.2989"/>
<polygon fill="#000000" stroke="#000000" stroke-width="2" points="141.4025,-218.0977 137.9024,-208.0977 134.4025,-218.0978 141.4025,-218.0977"/>
<text text-anchor="middle" x="176.3887" y="-271.8" font-family="Times,serif" font-size="14.00" fill="#000000">major_update</text>
</g>
<!-- v20190909 -->
<g id="node5" class="node">
<title>v20190909</title>
<ellipse fill="none" stroke="#000000" cx="282.9024" cy="-276" rx="49.805" ry="18"/>
<text text-anchor="middle" x="282.9024" y="-271.8" font-family="Times,serif" font-size="14.00" fill="#000000">v20190909</text>
</g>
<!-- v20190815&#45;&gt;v20190909 -->
<g id="edge3" class="edge">
<title>v20190815&#45;&gt;v20190909</title>
<path fill="none" stroke="#000000" stroke-dasharray="5,2" d="M164.1608,-346.426C187.6681,-332.4838 222.3069,-311.9394 248.1126,-296.6339"/>
<polygon fill="#000000" stroke="#000000" points="250.0238,-299.5698 256.8394,-291.4581 246.4529,-293.5491 250.0238,-299.5698"/>
<text text-anchor="middle" x="236.6231" y="-314.8" font-family="Times,serif" font-size="14.00" fill="#000000">Emon</text>
</g>
<!-- v20190920&#45;&gt;future -->
<g id="edge8" class="edge">
<title>v20190920&#45;&gt;future</title>
<path fill="none" stroke="#000000" stroke-width="2" d="M137.9024,-171.9181C137.9024,-141.981 137.9024,-81.8972 137.9024,-46.2989"/>
<polygon fill="#000000" stroke="#000000" stroke-width="2" points="141.4025,-46.0977 137.9024,-36.0977 134.4025,-46.0978 141.4025,-46.0977"/>
<text text-anchor="middle" x="176.3887" y="-99.8" font-family="Times,serif" font-size="14.00" fill="#000000">major_update</text>
</g>
<!-- v20191022 -->
<g id="node6" class="node">
<title>v20191022</title>
<ellipse fill="none" stroke="#000000" cx="282.9024" cy="-104" rx="49.805" ry="18"/>
<text text-anchor="middle" x="282.9024" y="-99.8" font-family="Times,serif" font-size="14.00" fill="#000000">v20191022</text>
</g>
<!-- v20190920&#45;&gt;v20191022 -->
<g id="edge6" class="edge">
<title>v20190920&#45;&gt;v20191022</title>
<path fill="none" stroke="#000000" stroke-dasharray="5,2" d="M164.1608,-174.426C187.6681,-160.4838 222.3069,-139.9394 248.1126,-124.6339"/>
<polygon fill="#000000" stroke="#000000" points="250.0238,-127.5698 256.8394,-119.4581 246.4529,-121.5491 250.0238,-127.5698"/>
<text text-anchor="middle" x="253.9215" y="-142.8" font-family="Times,serif" font-size="14.00" fill="#000000">Omon (bgc)</text>
</g>
<!-- v20191009 -->
<g id="node7" class="node">
<title>v20191009</title>
<ellipse fill="none" stroke="#000000" cx="400.9024" cy="-104" rx="49.805" ry="18"/>
<text text-anchor="middle" x="400.9024" y="-99.8" font-family="Times,serif" font-size="14.00" fill="#000000">v20191009</text>
</g>
<!-- v20190920&#45;&gt;v20191009 -->
<g id="edge9" class="edge">
<title>v20190920&#45;&gt;v20191009</title>
<path fill="none" stroke="#000000" stroke-dasharray="5,2" d="M182.7112,-181.9946C213.8006,-175.8443 255.9248,-166.3176 291.9024,-154 316.3284,-145.6373 342.667,-133.644 363.3336,-123.4998"/>
<polygon fill="#000000" stroke="#000000" points="365.0079,-126.5761 372.4027,-118.9888 361.8904,-120.3087 365.0079,-126.5761"/>
<text text-anchor="middle" x="349.0094" y="-142.8" font-family="Times,serif" font-size="14.00" fill="#000000">AERday</text>
</g>
<!-- v20190909&#45;&gt;v20190920 -->
<g id="edge5" class="edge">
<title>v20190909&#45;&gt;v20190920</title>
<path fill="none" stroke="#000000" stroke-dasharray="5,2" d="M256.644,-260.426C233.1368,-246.4838 198.498,-225.9394 172.6922,-210.6339"/>
<polygon fill="#000000" stroke="#000000" points="174.3519,-207.5491 163.9655,-205.4581 170.781,-213.5698 174.3519,-207.5491"/>
<text text-anchor="middle" x="237.2691" y="-228.8" font-family="Times,serif" font-size="14.00" fill="#000000">merge</text>
</g>
<!-- v20191022&#45;&gt;future -->
<g id="edge7" class="edge">
<title>v20191022&#45;&gt;future</title>
<path fill="none" stroke="#000000" stroke-dasharray="5,2" d="M256.644,-88.426C233.4288,-74.657 199.3568,-54.4488 173.6579,-39.2067"/>
<polygon fill="#000000" stroke="#000000" points="175.3351,-36.1322 164.9487,-34.0412 171.7642,-42.1529 175.3351,-36.1322"/>
<text text-anchor="middle" x="237.2691" y="-56.8" font-family="Times,serif" font-size="14.00" fill="#000000">merge</text>
</g>
<!-- v20191009&#45;&gt;future -->
<g id="edge10" class="edge">
<title>v20191009&#45;&gt;future</title>
<path fill="none" stroke="#000000" stroke-dasharray="5,2" d="M365.7615,-91.0827C337.1244,-80.6878 295.5702,-65.9023 258.9024,-54 230.8121,-44.8819 198.7689,-35.3885 174.7169,-28.4412"/>
<polygon fill="#000000" stroke="#000000" points="175.5107,-25.0277 164.9329,-25.6281 173.5764,-31.7552 175.5107,-25.0277"/>
<text text-anchor="middle" x="315.2691" y="-56.8" font-family="Times,serif" font-size="14.00" fill="#000000">merge</text>
</g>
<!-- v20191018 -->
<g id="node8" class="node">
<title>v20191018</title>
<ellipse fill="none" stroke="#000000" cx="400.9024" cy="-18" rx="49.805" ry="18"/>
<text text-anchor="middle" x="400.9024" y="-13.8" font-family="Times,serif" font-size="14.00" fill="#000000">v20191018</text>
</g>
<!-- v20191009&#45;&gt;v20191018 -->
<g id="edge11" class="edge">
<title>v20191009&#45;&gt;v20191018</title>
<path fill="none" stroke="#000000" stroke-dasharray="5,2" d="M384.8033,-86.5723C380.6666,-81.0367 376.7764,-74.6215 374.6163,-68 371.9492,-59.8245 374.1933,-51.3834 378.297,-43.8178"/>
<polygon fill="#000000" stroke="#000000" points="381.2517,-45.6944 383.7858,-35.407 375.3895,-41.8687 381.2517,-45.6944"/>
<text text-anchor="middle" x="393.5455" y="-56.8" font-family="Times,serif" font-size="14.00" fill="#000000">bug fix</text>
</g>
<!-- v20191018&#45;&gt;v20191009 -->
<g id="edge12" class="edge">
<title>v20191018&#45;&gt;v20191009</title>
<path fill="none" stroke="#000000" stroke-dasharray="5,2" d="M409.4097,-35.897C412.9249,-45.3606 415.7889,-57.2215 413.9024,-68 413.4248,-70.7287 412.7581,-73.5233 411.9764,-76.29"/>
<polygon fill="#000000" stroke="#000000" points="408.5756,-75.4277 408.7746,-86.0206 415.2249,-77.6156 408.5756,-75.4277"/>
</g>
</g>
</svg>
