<?xml version="1.0" encoding="UTF-8" standalone="no"?>
<!DOCTYPE svg PUBLIC "-//W3C//DTD SVG 1.1//EN"
 "http://www.w3.org/Graphics/SVG/1.1/DTD/svg11.dtd">
<!-- Generated by graphviz version 2.40.1 (20161225.0304)
 -->
<!-- Title: G Pages: 1 -->
<svg width="270pt" height="388pt"
 viewBox="0.00 0.00 269.80 388.00" xmlns="http://www.w3.org/2000/svg" xmlns:xlink="http://www.w3.org/1999/xlink">
<g id="graph0" class="graph" transform="scale(1 1) rotate(0) translate(4 384)">
<title>G</title>
<polygon fill="#ffffff" stroke="transparent" points="-4,4 -4,-384 265.8048,-384 265.8048,4 -4,4"/>
<!-- v20190817 -->
<g id="node1" class="node">
<title>v20190817</title>
<ellipse fill="none" stroke="#000000" cx="49.9024" cy="-276" rx="49.805" ry="18"/>
<text text-anchor="middle" x="49.9024" y="-271.8" font-family="Times,serif" font-size="14.00" fill="#000000">v20190817</text>
</g>
<!-- v20190920 -->
<g id="node4" class="node">
<title>v20190920</title>
<ellipse fill="none" stroke="#000000" cx="133.9024" cy="-190" rx="49.805" ry="18"/>
<text text-anchor="middle" x="133.9024" y="-185.8" font-family="Times,serif" font-size="14.00" fill="#000000">v20190920</text>
</g>
<!-- v20190817&#45;&gt;v20190920 -->
<g id="edge4" class="edge">
<title>v20190817&#45;&gt;v20190920</title>
<path fill="none" stroke="#000000" stroke-dasharray="5,2" d="M60.4044,-258.2895C66.844,-248.2194 75.6606,-235.7194 85.169,-226 90.0124,-221.0492 95.5882,-216.2635 101.1992,-211.8857"/>
<polygon fill="#000000" stroke="#000000" points="103.4436,-214.5779 109.364,-205.7916 99.2566,-208.9682 103.4436,-214.5779"/>
<text text-anchor="middle" x="103.2691" y="-228.8" font-family="Times,serif" font-size="14.00" fill="#000000">merge</text>
</g>
<!-- future -->
<g id="node2" class="node">
<title>future</title>
<polygon fill="none" stroke="#000000" points="160.9024,-36 106.9024,-36 106.9024,0 160.9024,0 160.9024,-36"/>
<text text-anchor="middle" x="133.9024" y="-13.8" font-family="Times,serif" font-size="14.00" fill="#000000">future</text>
</g>
<!-- v20190815 -->
<g id="node3" class="node">
<title>v20190815</title>
<ellipse fill="none" stroke="#000000" cx="133.9024" cy="-362" rx="49.805" ry="18"/>
<text text-anchor="middle" x="133.9024" y="-357.8" font-family="Times,serif" font-size="14.00" fill="#000000">v20190815</text>
</g>
<!-- v20190815&#45;&gt;v20190817 -->
<g id="edge1" class="edge">
<title>v20190815&#45;&gt;v20190817</title>
<path fill="none" stroke="#000000" stroke-dasharray="5,2" d="M88.1929,-354.4988C71.7048,-349.3455 54.7397,-340.6546 44.8575,-326 40.5649,-319.6344 39.8196,-311.737 40.6901,-304.113"/>
<polygon fill="#000000" stroke="#000000" points="44.1723,-304.5474 42.6971,-294.0557 37.3077,-303.1774 44.1723,-304.5474"/>
<text text-anchor="middle" x="82.4249" y="-314.8" font-family="Times,serif" font-size="14.00" fill="#000000">Lmon,LImon</text>
</g>
<!-- v20190815&#45;&gt;v20190920 -->
<g id="edge2" class="edge">
<title>v20190815&#45;&gt;v20190920</title>
<path fill="none" stroke="#000000" stroke-width="2" d="M133.9024,-343.9181C133.9024,-313.981 133.9024,-253.8972 133.9024,-218.2989"/>
<polygon fill="#000000" stroke="#000000" stroke-width="2" points="137.4025,-218.0977 133.9024,-208.0977 130.4025,-218.0978 137.4025,-218.0977"/>
</g>
<!-- v20190909 -->
<g id="node5" class="node">
<title>v20190909</title>
<ellipse fill="none" stroke="#000000" cx="211.9024" cy="-276" rx="49.805" ry="18"/>
<text text-anchor="middle" x="211.9024" y="-271.8" font-family="Times,serif" font-size="14.00" fill="#000000">v20190909</text>
</g>
<!-- v20190815&#45;&gt;v20190909 -->
<g id="edge3" class="edge">
<title>v20190815&#45;&gt;v20190909</title>
<path fill="none" stroke="#000000" stroke-dasharray="5,2" d="M149.6869,-344.5966C161.1051,-332.0073 176.6975,-314.8157 189.416,-300.7927"/>
<polygon fill="#000000" stroke="#000000" points="192.0158,-303.1361 196.1414,-293.3775 186.8307,-298.4334 192.0158,-303.1361"/>
<text text-anchor="middle" x="194.6231" y="-314.8" font-family="Times,serif" font-size="14.00" fill="#000000">Emon</text>
</g>
<!-- v20190920&#45;&gt;future -->
<g id="edge8" class="edge">
<title>v20190920&#45;&gt;future</title>
<path fill="none" stroke="#000000" stroke-width="2" d="M133.9024,-171.9181C133.9024,-141.981 133.9024,-81.8972 133.9024,-46.2989"/>
<polygon fill="#000000" stroke="#000000" stroke-width="2" points="137.4025,-46.0977 133.9024,-36.0977 130.4025,-46.0978 137.4025,-46.0977"/>
</g>
<!-- v20191009 -->
<g id="node6" class="node">
<title>v20191009</title>
<ellipse fill="none" stroke="#000000" cx="211.9024" cy="-104" rx="49.805" ry="18"/>
<text text-anchor="middle" x="211.9024" y="-99.8" font-family="Times,serif" font-size="14.00" fill="#000000">v20191009</text>
</g>
<!-- v20190920&#45;&gt;v20191009 -->
<g id="edge6" class="edge">
<title>v20190920&#45;&gt;v20191009</title>
<path fill="none" stroke="#000000" stroke-dasharray="5,2" d="M149.6869,-172.5966C161.1051,-160.0073 176.6975,-142.8157 189.416,-128.7927"/>
<polygon fill="#000000" stroke="#000000" points="192.0158,-131.1361 196.1414,-121.3775 186.8307,-126.4334 192.0158,-131.1361"/>
<text text-anchor="middle" x="202.0094" y="-142.8" font-family="Times,serif" font-size="14.00" fill="#000000">AERday</text>
</g>
<!-- v20190909&#45;&gt;v20190920 -->
<g id="edge5" class="edge">
<title>v20190909&#45;&gt;v20190920</title>
<path fill="none" stroke="#000000" stroke-dasharray="5,2" d="M196.118,-258.5966C184.6998,-246.0073 169.1074,-228.8157 156.3888,-214.7927"/>
<polygon fill="#000000" stroke="#000000" points="158.9741,-212.4334 149.6634,-207.3775 153.7891,-217.1361 158.9741,-212.4334"/>
<text text-anchor="middle" x="195.2691" y="-228.8" font-family="Times,serif" font-size="14.00" fill="#000000">merge</text>
</g>
<!-- v20191009&#45;&gt;future -->
<g id="edge7" class="edge">
<title>v20191009&#45;&gt;future</title>
<path fill="none" stroke="#000000" stroke-dasharray="5,2" d="M196.118,-86.5966C185.0288,-74.3701 170.0025,-57.8026 157.4952,-44.0126"/>
<polygon fill="#000000" stroke="#000000" points="159.7818,-41.3238 150.471,-36.268 154.5967,-46.0266 159.7818,-41.3238"/>
<text text-anchor="middle" x="195.2691" y="-56.8" font-family="Times,serif" font-size="14.00" fill="#000000">merge</text>
</g>
</g>
</svg>
